<svg width="16" height="16" viewBox="0 0 16 16" fill="none" xmlns="http://www.w3.org/2000/svg">
<path opacity="0.7" d="M8.14843 3.98578C9.09615 3.96974 10.012 4.32811 10.6971 4.98311L12.6091 3.07111C11.4028 1.93703 9.80398 1.31456 8.14843 1.33445C6.91242 1.33424 5.70069 1.67765 4.64858 2.32631C3.59647 2.97498 2.7454 3.90337 2.19043 5.00778L4.41776 6.73445C4.67392 5.94361 5.17166 5.25304 5.84091 4.75995C6.51016 4.26686 7.31721 3.9961 8.14843 3.98578Z" fill="black"/>
<path d="M2.19044 5.00391C1.72423 5.93286 1.48145 6.95786 1.48145 7.99724C1.48145 9.03661 1.72423 10.0616 2.19044 10.9906L4.41777 9.26391C4.13839 8.44257 4.13839 7.55191 4.41777 6.73057L2.19044 5.00391Z" fill="black"/>
<path opacity="0.5" d="M10.4061 11.3776C9.89065 11.7085 9.30647 11.9173 8.69809 11.988C8.08971 12.0588 7.47321 11.9897 6.8956 11.7859C6.318 11.5822 5.79455 11.2493 5.36518 10.8125C4.93582 10.3757 4.61188 9.84663 4.41807 9.26562L2.19141 10.9923C2.74627 12.0965 3.59713 13.0248 4.64899 13.6734C5.70084 14.3221 6.91229 14.6656 8.14807 14.6656C9.7709 14.7094 11.3491 14.1315 12.5601 13.0503L10.4061 11.3776Z" fill="black"/>
<path opacity="0.25" d="M14.4271 6.78516H8.14844V9.36382H11.7364C11.6622 9.77173 11.506 10.1603 11.2772 10.5062C11.0485 10.852 10.7521 11.1478 10.4058 11.3758L12.5604 13.0492C13.2167 12.4173 13.7328 11.6546 14.0752 10.8105C14.4177 9.96631 14.5789 9.05961 14.5484 8.14916C14.5484 7.69049 14.508 7.23582 14.4271 6.78516Z" fill="black"/>
</svg>
