<svg width="20" height="20" viewBox="0 0 20 20" fill="none" xmlns="http://www.w3.org/2000/svg">
<rect width="20" height="20" rx="10" fill="#A1A1AA"/>
<path d="M16 4.99609C16 5.1287 15.9473 5.25588 15.8536 5.34965C15.7598 5.44342 15.6326 5.49609 15.5 5.49609H14.5V14.9961C14.5 15.1287 14.4473 15.2559 14.3536 15.3496C14.2598 15.4434 14.1326 15.4961 14 15.4961H11.5C11.4106 15.496 11.3229 15.472 11.2459 15.4265C11.169 15.381 11.1056 15.3156 11.0625 15.2373L6.5 6.94297V14.4961H7.5C7.63261 14.4961 7.75979 14.5488 7.85355 14.6425C7.94732 14.7363 8 14.8635 8 14.9961C8 15.1287 7.94732 15.2559 7.85355 15.3496C7.75979 15.4434 7.63261 15.4961 7.5 15.4961H4.5C4.36739 15.4961 4.24021 15.4434 4.14645 15.3496C4.05268 15.2559 4 15.1287 4 14.9961C4 14.8635 4.05268 14.7363 4.14645 14.6425C4.24021 14.5488 4.36739 14.4961 4.5 14.4961H5.5V5.49609H4.5C4.36739 5.49609 4.24021 5.44342 4.14645 5.34965C4.05268 5.25588 4 5.1287 4 4.99609C4 4.86349 4.05268 4.73631 4.14645 4.64254C4.24021 4.54877 4.36739 4.49609 4.5 4.49609H8.5C8.5894 4.49617 8.67714 4.52022 8.75408 4.56573C8.83103 4.61124 8.89437 4.67654 8.9375 4.75484L13.5 13.0492V5.49609H12.5C12.3674 5.49609 12.2402 5.44342 12.1464 5.34965C12.0527 5.25588 12 5.1287 12 4.99609C12 4.86349 12.0527 4.73631 12.1464 4.64254C12.2402 4.54877 12.3674 4.49609 12.5 4.49609H15.5C15.6326 4.49609 15.7598 4.54877 15.8536 4.64254C15.9473 4.73631 16 4.86349 16 4.99609Z" fill="black"/>
</svg>
