<svg width="16" height="16" viewBox="0 0 16 16" fill="none" xmlns="http://www.w3.org/2000/svg">
<g clip-path="url(#clip0_40004496_7876)">
<path d="M14.3165 3.79102C13.9431 3.79131 13.5803 3.91551 13.2851 4.14414C12.9899 4.37277 12.7788 4.6929 12.6851 5.05435H10.7538C10.3552 5.05427 9.96949 5.19559 9.66529 5.45316C9.36108 5.71073 9.15811 6.06786 9.09246 6.46102L9.0238 6.87701C8.99135 7.07377 8.88997 7.25256 8.73779 7.38142C8.5856 7.51028 8.39254 7.58079 8.19313 7.58035H7.5258C7.43231 7.21888 7.22139 6.8987 6.92617 6.67012C6.63095 6.44154 6.26816 6.31751 5.8948 6.31751C5.52143 6.31751 5.15864 6.44154 4.86342 6.67012C4.5682 6.8987 4.35728 7.21888 4.2638 7.58035H3.3158C3.21325 7.18336 2.96944 6.83739 2.63007 6.60729C2.2907 6.3772 1.87906 6.27877 1.47231 6.33045C1.06555 6.38214 0.691615 6.58039 0.420574 6.88805C0.149534 7.19571 0 7.59166 0 8.00168C0 8.4117 0.149534 8.80765 0.420574 9.11531C0.691615 9.42297 1.06555 9.62122 1.47231 9.67291C1.87906 9.7246 2.2907 9.62617 2.63007 9.39607C2.96944 9.16597 3.21325 8.82001 3.3158 8.42302H4.2638C4.35706 8.78478 4.56792 9.10529 4.86323 9.33412C5.15854 9.56296 5.52153 9.68714 5.89513 9.68714C6.26872 9.68714 6.63172 9.56296 6.92703 9.33412C7.22234 9.10529 7.4332 8.78478 7.52646 8.42302H8.19313C8.39265 8.42242 8.58588 8.49286 8.7382 8.62173C8.89052 8.7506 8.992 8.92948 9.02446 9.12635L9.09313 9.54168C9.15863 9.93496 9.36155 10.2922 9.66576 10.55C9.96998 10.8077 10.3558 10.9491 10.7545 10.949H11.0011C11.1036 11.3461 11.3474 11.6921 11.6867 11.9223C12.0261 12.1524 12.4377 12.2509 12.8445 12.1993C13.2513 12.1476 13.6253 11.9494 13.8964 11.6417C14.1675 11.334 14.317 10.9381 14.317 10.528C14.317 10.118 14.1675 9.72199 13.8964 9.41432C13.6253 9.10665 13.2513 8.90841 12.8445 8.85676C12.4377 8.80512 12.0261 8.90361 11.6867 9.13377C11.3474 9.36394 11.1036 9.70997 11.0011 10.107H10.7545C10.555 10.1074 10.3618 10.0368 10.2096 9.90783C10.0574 9.77884 9.9561 9.59989 9.9238 9.40302L9.85513 8.98768C9.79156 8.60568 9.59798 8.25737 9.30713 8.00168C9.59762 7.74562 9.79073 7.39708 9.8538 7.01502L9.92313 6.60035C9.95543 6.40347 10.0567 6.22452 10.2089 6.09553C10.3611 5.96654 10.5543 5.89593 10.7538 5.89635H12.6845C12.7631 6.20148 12.9258 6.47842 13.154 6.69572C13.3822 6.91301 13.6668 7.06195 13.9754 7.12561C14.284 7.18927 14.6043 7.1651 14.8999 7.05584C15.1954 6.94659 15.4544 6.75663 15.6474 6.50754C15.8404 6.25846 15.9597 5.96023 15.9917 5.64675C16.0237 5.33327 15.9672 5.0171 15.8285 4.73416C15.6898 4.45121 15.4745 4.21284 15.2071 4.04612C14.9397 3.8794 14.6309 3.79102 14.3158 3.79102M14.3158 4.63302C14.5391 4.63302 14.7533 4.72173 14.9112 4.87963C15.0691 5.03754 15.1578 5.2517 15.1578 5.47502C15.1579 5.58564 15.1362 5.69521 15.0939 5.79744C15.0516 5.89967 14.9896 5.99257 14.9114 6.07083C14.8332 6.14909 14.7404 6.21117 14.6382 6.25353C14.536 6.29588 14.4264 6.31768 14.3158 6.31768C14.2052 6.31768 14.0956 6.29588 13.9934 6.25353C13.8912 6.21117 13.7984 6.14909 13.7202 6.07083C13.642 5.99257 13.58 5.89967 13.5377 5.79744C13.4954 5.69521 13.4737 5.58564 13.4738 5.47502C13.4738 5.36439 13.4956 5.25484 13.538 5.15264C13.5803 5.05044 13.6424 4.95759 13.7206 4.8794C13.7989 4.8012 13.8918 4.73919 13.994 4.69692C14.0963 4.65464 14.2058 4.63293 14.3165 4.63302M1.68446 7.15968C1.79509 7.15959 1.90465 7.18131 2.00689 7.22358C2.10912 7.26586 2.20202 7.32787 2.28028 7.40606C2.35853 7.48426 2.42062 7.57711 2.46297 7.67931C2.50533 7.78151 2.52713 7.89105 2.52713 8.00168C2.52713 8.11231 2.50533 8.22186 2.46297 8.32406C2.42062 8.42625 2.35853 8.51911 2.28028 8.5973C2.20202 8.6755 2.10912 8.7375 2.00689 8.77978C1.90465 8.82205 1.79509 8.84377 1.68446 8.84368C1.46115 8.84368 1.24698 8.75497 1.08908 8.59707C0.931172 8.43916 0.842462 8.22499 0.842462 8.00168C0.842462 7.77837 0.931172 7.5642 1.08908 7.4063C1.24698 7.24839 1.46115 7.15968 1.68446 7.15968ZM5.89513 7.15968C6.0057 7.15968 6.11519 7.18146 6.21735 7.22378C6.3195 7.26609 6.41233 7.32811 6.49051 7.4063C6.5687 7.48448 6.63072 7.57731 6.67304 7.67946C6.71535 7.78162 6.73713 7.89111 6.73713 8.00168C6.73713 8.22499 6.64842 8.43916 6.49051 8.59707C6.33261 8.75497 6.11844 8.84368 5.89513 8.84368C5.67193 8.8435 5.45794 8.75472 5.30018 8.59683C5.14241 8.43894 5.0538 8.22488 5.0538 8.00168C5.0538 7.77837 5.14251 7.5642 5.30041 7.4063C5.45832 7.24839 5.67248 7.15968 5.8958 7.15968M12.6331 9.68635C12.8564 9.68635 13.0706 9.77506 13.2285 9.93296C13.3864 10.0909 13.4751 10.305 13.4751 10.5283C13.4751 10.7517 13.3864 10.9658 13.2285 11.1237C13.0706 11.2816 12.8564 11.3703 12.6331 11.3703C12.5225 11.3704 12.4129 11.3487 12.3107 11.3064C12.2085 11.2642 12.1156 11.2022 12.0373 11.124C11.9591 11.0458 11.897 10.9529 11.8546 10.8507C11.8123 10.7485 11.7905 10.639 11.7905 10.5283C11.7904 10.4177 11.8121 10.3082 11.8544 10.2059C11.8966 10.1037 11.9586 10.0108 12.0368 9.93253C12.115 9.85428 12.2079 9.79219 12.3101 9.74984C12.4123 9.70748 12.5218 9.68568 12.6325 9.68568" fill="black"/>
</g>
<defs>
<clipPath id="clip0_40004496_7876">
<rect width="16" height="16" fill="white"/>
</clipPath>
</defs>
</svg>
