<svg width="20" height="20" viewBox="0 0 20 20" fill="none" xmlns="http://www.w3.org/2000/svg">
<rect width="20" height="20" rx="10" fill="#A1A1AA"/>
<path d="M10.0007 3.33398C6.32065 3.33398 3.33398 6.32065 3.33398 10.0007C3.33398 13.6807 6.32065 16.6673 10.0007 16.6673C13.6807 16.6673 16.6673 13.6807 16.6673 10.0007C16.6673 6.32065 13.6807 3.33398 10.0007 3.33398ZM13.094 7.86732C12.994 8.92065 12.5607 11.4807 12.3407 12.6607C12.2473 13.1607 12.0607 13.3273 11.8873 13.3473C11.5007 13.3807 11.2073 13.094 10.834 12.8473C10.2473 12.4607 9.91399 12.2207 9.34732 11.8473C8.68732 11.414 9.11399 11.174 9.49399 10.7873C9.59399 10.6873 11.3007 9.13399 11.334 8.99398C11.3386 8.97278 11.338 8.95077 11.3322 8.92985C11.3264 8.90894 11.3156 8.88976 11.3007 8.87399C11.2607 8.84065 11.2073 8.85398 11.1607 8.86065C11.1007 8.87398 10.1673 9.49399 8.34732 10.7207C8.08065 10.9007 7.84065 10.994 7.62732 10.9873C7.38732 10.9807 6.93398 10.854 6.59398 10.7407C6.17398 10.6073 5.84732 10.534 5.87398 10.3007C5.88732 10.1807 6.05398 10.0607 6.36732 9.93398C8.31399 9.08732 9.60732 8.52732 10.254 8.26065C12.1073 7.48732 12.4873 7.35398 12.7407 7.35398C12.794 7.35398 12.9207 7.36732 13.0007 7.43398C13.0673 7.48732 13.0873 7.56065 13.094 7.61399C13.0873 7.65399 13.1007 7.77398 13.094 7.86732Z" fill="black"/>
</svg>
