<svg width="20" height="20" viewBox="0 0 20 20" fill="none" xmlns="http://www.w3.org/2000/svg">
<rect width="20" height="20" rx="10" fill="#A1A1AA"/>
<path opacity="0.6" d="M9.77801 3.33398H7.55534C6.96594 3.33398 6.40068 3.56812 5.98391 3.98489C5.56715 4.40166 5.33301 4.96692 5.33301 5.55632C5.33301 6.14572 5.56715 6.71098 5.98391 7.12774C6.40068 7.54451 6.96594 7.77865 7.55534 7.77865H9.77801V3.33398Z" fill="black"/>
<path opacity="0.4" d="M9.77767 7.77148H7.55501C6.9657 7.77148 6.40052 8.00559 5.98382 8.42229C5.56711 8.839 5.33301 9.40417 5.33301 9.99348C5.33301 10.5828 5.56711 11.148 5.98382 11.5647C6.40052 11.9814 6.9657 12.2155 7.55501 12.2155H9.77767V7.77148Z" fill="black"/>
<path d="M14.222 9.99382C14.222 10.5832 13.9879 11.1485 13.5711 11.5652C13.1543 11.982 12.5891 12.2162 11.9997 12.2162C11.4103 12.2162 10.845 11.982 10.4283 11.5652C10.0115 11.1485 9.77734 10.5832 9.77734 9.99382C9.77734 9.40442 10.0115 8.83916 10.4283 8.42239C10.845 8.00562 11.4103 7.77148 11.9997 7.77148C12.5891 7.77148 13.1543 8.00562 13.5711 8.42239C13.9879 8.83916 14.222 9.40442 14.222 9.99382Z" fill="black"/>
<path opacity="0.2" d="M7.55532 12.2233H9.77799V14.4453C9.77785 14.8847 9.64744 15.3142 9.40323 15.6795C9.15903 16.0449 8.81199 16.3295 8.406 16.4976C8.00001 16.6657 7.55329 16.7097 7.12233 16.6239C6.69137 16.5382 6.29551 16.3266 5.98479 16.0158C5.67408 15.7051 5.46247 15.3093 5.37671 14.8783C5.29096 14.4473 5.3349 14.0006 5.503 13.5946C5.67109 13.1887 5.95579 12.8416 6.32109 12.5974C6.6864 12.3532 7.11591 12.2235 7.55532 12.2233Z" fill="black"/>
<path opacity="0.8" d="M9.77734 3.33398H11.9993C12.5887 3.33398 13.154 3.56812 13.5708 3.98489C13.9875 4.40166 14.2217 4.96692 14.2217 5.55632C14.2217 6.14572 13.9875 6.71098 13.5708 7.12774C13.154 7.54451 12.5887 7.77865 11.9993 7.77865H9.77734V3.33398Z" fill="black"/>
</svg>
