<svg width="20" height="20" viewBox="0 0 20 20" fill="none" xmlns="http://www.w3.org/2000/svg">
<rect width="20" height="20" rx="10" fill="#A1A1AA"/>
<path d="M10.0007 3.33398C13.6827 3.33398 16.6673 6.31865 16.6673 10.0007C16.6673 13.6827 13.6827 16.6673 10.0007 16.6673C8.8225 16.6693 7.66505 16.3576 6.64733 15.764L3.33666 16.6673L4.23799 13.3553C3.64397 12.3373 3.33193 11.1793 3.33399 10.0007C3.33399 6.31865 6.31866 3.33398 10.0007 3.33398ZM7.72866 6.86732L7.59533 6.87265C7.50912 6.87859 7.42489 6.90123 7.34733 6.93932C7.27504 6.98033 7.20904 7.03152 7.15133 7.09132C7.07133 7.16665 7.02599 7.23198 6.97733 7.29532C6.73074 7.61592 6.59798 8.00953 6.59999 8.41398C6.60133 8.74065 6.68666 9.05865 6.81999 9.35598C7.09266 9.95732 7.54133 10.594 8.13333 11.184C8.27599 11.326 8.416 11.4687 8.56666 11.6013C9.30228 12.2489 10.1788 12.716 11.1267 12.9653L11.5053 13.0233C11.6287 13.03 11.752 13.0207 11.876 13.0147C12.0701 13.0044 12.2597 12.9519 12.4313 12.8607C12.5186 12.8155 12.6038 12.7666 12.6867 12.714C12.6867 12.714 12.7149 12.6949 12.77 12.654C12.86 12.5873 12.9153 12.54 12.99 12.462C13.046 12.4042 13.0927 12.3371 13.13 12.2607C13.182 12.152 13.234 11.9447 13.2553 11.772C13.2713 11.64 13.2667 11.568 13.2647 11.5233C13.262 11.452 13.2027 11.378 13.138 11.3467L12.75 11.1727C12.75 11.1727 12.17 10.92 11.8153 10.7587C11.7782 10.7425 11.7384 10.7332 11.698 10.7313C11.6524 10.7265 11.6063 10.7316 11.5628 10.7462C11.5193 10.7609 11.4795 10.7846 11.446 10.816C11.4427 10.8147 11.398 10.8527 10.916 11.4367C10.8883 11.4738 10.8502 11.5019 10.8065 11.5174C10.7628 11.5328 10.7155 11.5349 10.6707 11.5233C10.6272 11.5117 10.5847 11.497 10.5433 11.4793C10.4607 11.4447 10.432 11.4313 10.3753 11.4073C9.99258 11.2406 9.63829 11.015 9.32533 10.7387C9.24133 10.6653 9.16333 10.5853 9.08333 10.508C8.82107 10.2568 8.5925 9.97264 8.40333 9.66265L8.36399 9.59932C8.33617 9.55652 8.31335 9.51066 8.29599 9.46265C8.27066 9.36465 8.33666 9.28598 8.33666 9.28598C8.33666 9.28598 8.49866 9.10865 8.57399 9.01265C8.64733 8.91932 8.70933 8.82865 8.74933 8.76398C8.82799 8.63732 8.85266 8.50732 8.81133 8.40665C8.62466 7.95065 8.43177 7.4971 8.23266 7.04598C8.19333 6.95665 8.07666 6.89265 7.97066 6.87998C7.93466 6.87554 7.89866 6.87198 7.86266 6.86932C7.77315 6.86418 7.68339 6.86507 7.59399 6.87198L7.72866 6.86732Z" fill="black"/>
</svg>
