<svg width="20" height="16" viewBox="0 0 20 16" fill="none" xmlns="http://www.w3.org/2000/svg">
<path d="M20 3.53125V12.9963C20 13.7615 19.7077 14.4978 19.1827 15.0545C18.6578 15.6113 17.9399 15.9464 17.176 15.9913L17 15.9963H3C2.23479 15.9963 1.49849 15.7039 0.941739 15.179C0.384993 14.654 0.0498925 13.9361 0.00500011 13.1723L0 12.9963V3.53125L9.445 9.82825L9.561 9.89425C9.69771 9.96104 9.84785 9.99576 10 9.99576C10.1522 9.99576 10.3023 9.96104 10.439 9.89425L10.555 9.82825L20 3.53125Z" fill="white"/>
<path d="M17.0003 0C18.0803 0 19.0273 0.57 19.5553 1.427L10.0003 7.797L0.445312 1.427C0.696105 1.01982 1.0406 0.6785 1.45008 0.431489C1.85957 0.184479 2.32217 0.0389373 2.79931 0.00699997L3.00031 0H17.0003Z" fill="white"/>
</svg>
