<svg width="123" height="38" viewBox="0 0 123 38" fill="none" xmlns="http://www.w3.org/2000/svg">
<g opacity="0.4">
<g filter="url(#filter0_g_1239_18360)">
<path d="M59.4006 8.94219C59.7122 8.94219 59.8679 9.40955 59.8679 10.3443L59.9199 10.9674C59.8852 11.2011 59.8679 11.3915 59.8679 11.5386L59.9199 11.6425L59.1929 12.5253C58.6736 12.5253 58.362 12.8888 58.2581 13.6158V14.187C58.2755 14.7669 59.1236 15.5977 60.8027 16.6796C61.8153 17.4931 62.3345 17.9778 62.3605 18.1336C62.4384 18.1336 62.6288 18.2547 62.9317 18.4971C64.3078 19.3539 65.2945 20.5829 65.8917 22.184C66.0301 22.7812 66.0994 23.1447 66.0994 23.2745C66.0734 23.413 66.0388 23.4822 65.9955 23.4822C66.0648 23.6034 66.0994 23.7592 66.0994 23.9496C66.0994 24.4169 65.9955 24.7977 65.7878 25.092C65.7272 25.5507 65.5714 25.9315 65.3204 26.2344C64.7146 26.996 64.3857 27.3769 64.3338 27.3769C64.1001 27.3769 63.7539 27.5326 63.2952 27.8442C62.2567 28.1212 61.495 28.2596 61.0104 28.2596H60.8027L60.6988 28.2077C60.6642 27.4634 60.6469 26.9095 60.6469 26.546V25.092C60.6469 24.9968 61.0104 24.841 61.7374 24.6246C62.0836 24.3477 62.2567 24.1054 62.2567 23.8976V23.3264C62.2567 23.0668 61.9105 22.5302 61.2181 21.7166C61.0969 21.7166 59.6775 20.5569 56.9599 18.2374C55.6704 16.8959 54.8914 15.8227 54.6231 15.0178C54.5279 14.9226 54.4068 14.5072 54.2596 13.7716V13.46C54.2596 12.2743 54.8482 11.1838 56.0252 10.1885C56.7782 9.66919 57.2802 9.40955 57.5311 9.40955H57.9466C57.9466 9.27107 58.4312 9.11528 59.4006 8.94219ZM60.9584 8.94219C61.5037 9.08067 61.9537 9.16721 62.3086 9.20183C62.3086 9.27973 62.5855 9.40089 63.1394 9.56533C63.7453 9.79901 64.4377 10.3356 65.2166 11.1751C65.5974 11.8935 65.7878 12.4301 65.7878 12.7849V13.1484C65.9609 13.3388 66.0474 13.5465 66.0474 13.7716V14.0831C66.0474 14.4986 65.6666 14.7063 64.905 14.7063C63.0356 14.7063 62.1009 14.5851 62.1009 14.3428C61.9537 13.3042 61.6941 12.7849 61.3219 12.7849C61.045 12.5945 60.9065 12.4214 60.9065 12.2656C60.9065 12.0579 60.8719 11.9194 60.8027 11.8502V11.6425C60.8027 11.1405 60.768 10.275 60.6988 9.04605L60.9584 8.94219ZM55.2982 22.1321C55.4713 22.1321 55.8002 22.184 56.2849 22.2878H57.2715C57.5831 22.2878 57.7389 22.4783 57.7389 22.8591V23.638C57.8514 23.638 58.1456 23.9323 58.6216 24.5208C59.3833 24.7891 59.7641 24.9795 59.7641 25.092V27.7923C59.7641 28.1039 59.6429 28.2596 59.4006 28.2596C58.7169 28.2596 57.7994 28 56.6484 27.4807C56.1291 27.2124 55.8175 26.9528 55.7136 26.7018L54.4674 25.6113V25.092C54.4674 25.0574 54.4847 25.0401 54.5193 25.0401C54.4154 24.7891 54.3116 24.4948 54.2077 24.1573H54.2596C54.1212 23.7851 54.0346 23.3697 54 22.911C54 22.634 54.1558 22.3917 54.4674 22.184L54.727 22.2359H54.8828C54.9174 22.2359 55.0559 22.2013 55.2982 22.1321ZM69.8382 9.1499C70.496 9.323 70.8249 9.5134 70.8249 9.72112C70.7556 9.85094 70.721 9.98942 70.721 10.1365V12.006C70.721 12.1877 70.6691 12.7589 70.5652 13.7196C70.5999 14.3168 70.6172 14.663 70.6172 14.7582C70.5825 15.2775 70.5652 15.7102 70.5652 16.0564C70.496 16.0651 70.4614 16.0997 70.4614 16.1603V16.7315C70.4614 16.8094 70.4787 16.8786 70.5133 16.9392C70.4787 16.9998 70.4614 17.069 70.4614 17.1469V17.6662C70.4614 17.6835 70.496 17.7354 70.5652 17.822V19.3798C70.496 20.4963 70.4614 21.1021 70.4614 21.1973V23.1706C70.4614 23.3697 70.5133 24.1832 70.6172 25.6113V27.6365C70.6172 27.7836 70.1844 27.9048 69.3189 28C68.5746 27.8961 67.9688 27.8442 67.5014 27.8442C67.2937 27.8442 67.1899 26.9614 67.1899 25.1959V21.0935C67.1899 20.3146 67.2245 19.8299 67.2937 19.6395C67.2591 19.2846 67.2418 19.0077 67.2418 18.8086V17.2508C67.2418 16.7748 67.2591 16.4459 67.2937 16.2641C67.2591 15.9352 67.2418 15.5717 67.2418 15.1736V12.8888C67.1726 12.3002 67.1379 11.9714 67.1379 11.9021V10.7078C67.1379 10.6126 67.1033 10.5087 67.0341 10.3962C67.0341 9.73843 67.3976 9.35762 68.1246 9.25376C68.9035 9.18452 69.4747 9.1499 69.8382 9.1499ZM77.3679 9.1499H77.991C78.8565 9.25376 79.2892 9.58264 79.2892 10.1365C79.2892 10.5953 79.2027 10.9068 79.0296 11.0713V11.3309C79.1335 11.4607 79.1854 11.5819 79.1854 11.6944V23.5341L79.2373 23.8457C79.194 24.2092 79.1248 24.4342 79.0296 24.5208V24.7804L79.1854 24.9881C79.1854 25.1785 79.22 25.8882 79.2892 27.1172C79.2892 27.7057 78.7007 28 77.5237 28C76.7794 27.8961 76.2255 27.8442 75.862 27.8442L75.81 27.7404C75.6716 23.9928 75.6023 21.8291 75.6023 21.2493C75.6023 20.9377 75.6196 20.1934 75.6542 19.0163C75.6369 18.8173 75.585 18.6615 75.4985 18.549V18.1336C75.4985 18.0989 75.5331 17.9605 75.6023 17.7181V17.5623L75.4985 17.1988C75.4985 17.0084 75.5158 16.6796 75.5504 16.2122C75.5158 15.8054 75.4985 15.5112 75.4985 15.3294C75.5677 15.0871 75.6023 14.8967 75.6023 14.7582C75.5331 14.5418 75.4985 14.3687 75.4985 14.2389C75.4985 13.3821 75.4638 12.5166 75.3946 11.6425C75.4465 11.6425 75.4985 11.5905 75.5504 11.4867V10.3962C75.5504 10.3529 75.5158 10.1625 75.4465 9.82498C75.6629 9.37493 76.3034 9.1499 77.3679 9.1499ZM71.8115 12.1098H71.8635C72.3048 13.3128 73.2223 15.4765 74.6157 18.6009V21.5089L74.8234 25.8709H74.7195C74.0271 23.9236 72.9713 21.4483 71.5519 18.4451V17.0431C71.5519 16.7055 71.6038 15.5112 71.7077 13.46V12.2137C71.7163 12.1445 71.7509 12.1098 71.8115 12.1098ZM83.0021 9.1499H83.6253L84.0926 9.25376L84.4042 9.20183C84.8889 9.20183 85.1312 9.49609 85.1312 10.0846C85.2005 11.2876 85.2351 12.3089 85.2351 13.1484V20.8338C85.1312 23.2053 85.0793 24.5727 85.0793 24.9362V27.3249L85.1312 27.5846C85.1312 27.7317 84.6812 27.8702 83.7811 28C82.2232 27.8961 81.4443 27.7923 81.4443 27.6884L81.3924 27.4288V27.1172C81.3924 26.4854 81.375 25.7238 81.3404 24.8324L81.3924 24.5727L81.3404 23.8457C81.375 21.4224 81.3924 19.9511 81.3924 19.4318L81.5481 19.1721V19.0163C81.4443 18.8865 81.3924 18.7654 81.3924 18.6528V14.4986C81.3924 14.386 81.4443 14.2649 81.5481 14.1351V13.8754C81.427 13.8754 81.3058 12.6811 81.1846 10.2923C81.1846 9.56533 81.7212 9.20183 82.7944 9.20183C82.7944 9.16721 82.8637 9.1499 83.0021 9.1499ZM86.5852 9.1499H86.741C86.8708 9.25376 86.992 9.30569 87.1045 9.30569H87.1564L87.5199 9.20183C88.3854 9.27973 88.8182 9.4182 88.8182 9.61726H89.2336C89.8913 9.79036 90.2202 9.92883 90.2202 10.0327H90.6357C91.5011 10.6472 91.9339 11.1492 91.9339 11.5386C91.9771 11.7204 92.0983 11.8588 92.2974 11.9541C92.5051 12.4301 92.6955 13.209 92.8686 14.2908H92.8167C92.8859 14.4639 92.9205 14.8621 92.9205 15.4852V16.5238C92.9205 17.2248 92.8859 18.1076 92.8167 19.1721C92.8167 19.2068 92.834 19.2241 92.8686 19.2241L92.8167 19.4837V22.5475C92.8167 24.4689 92.1935 25.9229 90.9472 26.9095C90.2116 27.5326 88.6883 27.8442 86.3775 27.8442L86.3256 27.7404V27.4288C86.3256 26.7797 86.3083 25.8277 86.2736 24.5727C86.4987 24.5121 87.1045 24.4429 88.0912 24.365C88.4979 24.114 88.7576 23.7332 88.8701 23.2226L88.922 22.911L88.8182 22.2359C88.9566 22.0282 89.0259 21.8724 89.0259 21.7686V21.6128C88.8874 21.4656 88.8182 21.3272 88.8182 21.1973V20.9896C88.8182 20.5915 88.8355 20.228 88.8701 19.8991C88.8268 19.3106 88.7922 18.9817 88.7662 18.9125C88.8355 18.3067 88.8701 17.6662 88.8701 16.9911C88.7662 16.9911 88.7143 16.7142 88.7143 16.1603V14.0831C88.7143 13.8148 88.5758 13.4686 88.2989 13.0446C87.9354 12.733 87.6065 12.5772 87.3122 12.5772C87.3122 12.5426 87.2949 12.5253 87.2603 12.5253H87.2084C87.1824 12.5253 87.0439 12.5599 86.7929 12.6291H86.4294C86.3256 12.6291 86.2736 12.4041 86.2736 11.9541V11.9021C86.2736 11.8675 86.291 11.8502 86.3256 11.8502C86.265 11.5386 86.1784 10.6905 86.0659 9.30569C86.2477 9.20183 86.4208 9.1499 86.5852 9.1499ZM99.0741 9.02008H99.3337C99.5414 9.03739 99.6453 9.08932 99.6453 9.17587V11.9281C99.6453 12.1271 99.2818 12.5253 98.5548 13.1224C98.4509 13.1224 98.3644 13.5033 98.2951 14.2649V16.8613C98.2951 16.8873 98.2605 17.0257 98.1913 17.2767V17.4325L98.2951 17.5883V20.8079L98.1393 21.0156V21.5349L98.2432 21.6907V22.9889C98.3384 24.2698 98.5288 24.9102 98.8144 24.9102C99.2991 25.1093 99.5414 25.2478 99.5414 25.3257C99.576 26.3816 99.6107 27.0566 99.6453 27.3509C99.602 27.9048 99.5501 28.251 99.4895 28.3895C98.624 28.3895 97.5854 28.0606 96.3738 27.4028C95.4391 26.572 94.9544 25.9834 94.9198 25.6372C94.539 24.9102 94.3486 23.9755 94.3486 22.8331V20.9637C94.4178 20.8771 94.4524 20.8252 94.4524 20.8079V20.5482L94.3486 20.3925V14.3687C94.3486 12.1445 95.1621 10.6212 96.7892 9.79901C97.672 9.38358 98.2951 9.17587 98.6586 9.17587C98.6846 9.07201 98.8231 9.02008 99.0741 9.02008ZM100.788 9.02008H101.255C102.328 9.2278 103.211 9.53937 103.903 9.9548C105.323 10.9155 106.032 12.5253 106.032 14.7842V14.8361C106.032 15.6669 105.773 16.0824 105.254 16.0824L104.994 16.1343C104.198 16.0997 103.471 16.0824 102.813 16.0824H102.138C101.991 16.0824 101.904 15.84 101.878 15.3554V13.6937C101.878 13.2003 101.532 12.7503 100.84 12.3435C100.736 10.5693 100.684 9.47879 100.684 9.07201L100.788 9.02008ZM105.357 20.8598C105.807 20.8598 106.032 21.1195 106.032 21.6387V21.6907C106.032 24.0101 105.669 25.5161 104.942 26.2085C104.691 26.9095 103.791 27.5673 102.242 28.1818L100.892 28.3895L100.84 28.2856C100.77 27.1605 100.736 26.0873 100.736 25.066C101.532 24.841 101.93 24.4083 101.93 23.7678V23.2485C101.93 23.1966 101.896 22.9196 101.826 22.4177V22.2619C101.826 22.1407 101.896 22.0022 102.034 21.8465V21.7426C102.034 21.6474 101.999 21.5435 101.93 21.431C101.93 21.2926 102.086 21.1195 102.397 20.9117H102.865C103.523 20.9117 104.353 20.8944 105.357 20.8598ZM117.509 9.1499C118.063 9.1499 118.34 9.47879 118.34 10.1365V10.5C118.34 11.8502 118.166 12.5253 117.82 12.5253C117.82 12.5599 117.768 12.5772 117.665 12.5772H117.353C117.102 12.5772 116.912 12.5599 116.782 12.5253C116.557 12.5599 116.332 12.5772 116.107 12.5772H115.432C115.362 12.5858 115.328 12.6205 115.328 12.6811C114.445 12.7157 113.856 12.733 113.562 12.733C113.103 12.733 111.961 12.7157 110.135 12.6811C110.135 12.6118 110.1 12.5772 110.031 12.5772H109.564V12.6811C108.923 12.7157 108.456 12.733 108.162 12.733H107.59C107.521 12.733 107.486 12.6811 107.486 12.5772H107.227C106.881 12.5512 106.708 12.4474 106.708 12.2656C106.638 11.2097 106.604 10.5347 106.604 10.2404C106.604 9.58264 106.829 9.25376 107.279 9.25376L107.538 9.30569H108.941L109.096 9.40955H109.148C109.391 9.34031 109.529 9.30569 109.564 9.30569H115.639C116.764 9.20183 117.388 9.1499 117.509 9.1499ZM111.018 13.6677V13.7196L111.122 13.6677H114.289L114.445 13.7716L114.393 14.2908V24.4169C114.393 24.7285 114.445 25.5767 114.549 26.9614C114.549 27.6538 114.081 28 113.147 28C111.45 27.8961 110.602 27.775 110.602 27.6365C110.498 27.2903 110.446 26.2517 110.446 24.5208V23.5341C110.446 23.0754 110.464 22.4869 110.498 21.7686C110.498 21.7339 110.481 21.7166 110.446 21.7166L110.498 21.1973V16.9392L110.602 16.7834V16.368C110.602 16.3334 110.568 16.1949 110.498 15.9526V15.8487C110.498 15.4939 110.446 14.8188 110.343 13.8235C110.49 13.7542 110.715 13.7023 111.018 13.6677Z" fill="#CBCBCB"/>
</g>
<g clip-path="url(#clip0_1239_18360)">
<mask id="mask0_1239_18360" style="mask-type:luminance" maskUnits="userSpaceOnUse" x="0" y="0" width="38" height="38">
<path d="M38 0H0V38H38V0Z" fill="white"/>
</mask>
<g mask="url(#mask0_1239_18360)">
<path d="M19.4606 6.90533C22.4289 6.90533 25.1345 7.54986 27.5773 8.83888C30.0205 10.1279 32.1613 12.0471 34 14.5965L32.7392 15.5529C31.0841 13.215 29.1472 11.4552 26.928 10.2735C24.709 9.0918 22.2198 8.50042 19.4606 8.49936C16.7287 8.49936 14.2595 9.09712 12.053 10.2926C9.84647 11.4882 7.91576 13.2681 6.26086 15.6326L5 14.716C6.86505 12.139 9.01272 10.1933 11.443 8.87873C13.8734 7.5642 16.5459 6.90639 19.4606 6.90533ZM19.4606 10.6513C23.0593 10.6513 26.1197 11.8601 28.6412 14.2777C31.163 16.6953 32.4238 19.6442 32.4238 23.1245C32.4238 24.4263 31.9574 25.5289 31.0243 26.4321C30.0914 27.3353 28.9554 27.787 27.6169 27.787C26.2509 27.787 25.0951 27.3353 24.1495 26.4321C23.2038 25.5289 22.731 24.4263 22.731 23.1245C22.731 22.2743 22.4158 21.5438 21.7853 20.9327C21.1549 20.3217 20.38 20.0162 19.4606 20.0162C18.5412 20.0162 17.7663 20.3217 17.1359 20.9327C16.5054 21.5438 16.1902 22.2743 16.1902 23.1245C16.1902 25.6484 16.9389 27.7802 18.4361 29.5197C19.9334 31.2592 22.1399 32.5681 25.0557 33.4457L24.6617 35C21.457 34.1763 18.9815 32.7348 17.2352 30.6752C15.4889 28.616 14.6152 26.0989 14.6141 23.1245C14.6141 21.8227 15.087 20.7138 16.0326 19.7978C16.9783 18.8817 18.1209 18.4232 19.4606 18.4221C20.8003 18.4211 21.9429 18.8796 22.8886 19.7978C23.8342 20.7159 24.3071 21.8248 24.3071 23.1245C24.3071 23.9746 24.6291 24.7052 25.2732 25.3163C25.9172 25.9274 26.6986 26.2329 27.6169 26.2329C28.51 26.2329 29.2717 25.9274 29.9023 25.3163C30.5325 24.7052 30.8479 23.9746 30.8479 23.1245C30.8479 20.0959 29.7444 17.5189 27.538 15.3935C25.3315 13.2681 22.6522 12.2054 19.5 12.2054C16.3478 12.2054 13.6685 13.2681 11.4619 15.3935C9.25543 17.5189 8.15216 20.0826 8.15216 23.0847C8.15216 24.0145 8.25094 25.0108 8.44849 26.0733C8.64601 27.1361 8.96753 28.3051 9.41305 29.5802L7.99457 30.1381C7.52175 28.9162 7.16713 27.7206 6.93071 26.5517C6.69431 25.3827 6.57609 24.2403 6.57609 23.1245C6.57609 19.6442 7.82383 16.6953 10.3193 14.2777C12.8148 11.8601 15.8619 10.6513 19.4606 10.6513ZM19.4606 3C21.168 3 22.836 3.21254 24.4647 3.63759C26.0933 4.06267 27.8401 4.75341 29.7051 5.70983L29.0748 7.1843C27.2622 6.25444 25.6011 5.59027 24.0911 5.19177C22.5813 4.79327 21.0377 4.594 19.4606 4.594C17.7269 4.594 16.1245 4.80654 14.6535 5.23162C13.1825 5.6567 11.6458 6.33414 10.0435 7.264L9.33424 5.86924C11.0679 4.88625 12.7491 4.16257 14.3777 3.69817C16.0063 3.23377 17.7006 3.00106 19.4606 3ZM19.4606 14.5168C22.0874 14.5168 24.2351 15.3935 25.9037 17.1469C27.5721 18.9003 28.406 21.1585 28.405 23.9215H26.8288C26.8288 21.5836 26.1457 19.6974 24.7799 18.2627C23.4139 16.8281 21.6408 16.1108 19.4606 16.1108C17.4379 16.1108 15.7174 16.7952 14.2989 18.1639C12.8804 19.5326 12.1712 21.1862 12.1712 23.1245C12.1712 25.1701 12.5258 26.957 13.2351 28.4853C13.9443 30.0132 15.2183 31.7464 17.0571 33.6848L15.9538 34.8006C13.9837 32.7284 12.5983 30.8219 11.7977 29.0814C10.997 27.3406 10.5962 25.3551 10.5951 23.1245C10.5951 20.7335 11.4557 18.7011 13.1767 17.0274C14.8978 15.3537 16.9924 14.5168 19.4606 14.5168ZM21.2337 29.1419C20.3931 28.3449 19.7495 27.3682 19.303 26.2122C18.8564 25.0559 18.6331 23.761 18.6331 22.3275H20.2092C20.2092 23.523 20.3931 24.6123 20.7609 25.5952C21.1286 26.5783 21.654 27.3885 22.3369 28.0262C23.0199 28.6373 23.7885 29.1085 24.6428 29.4399C25.497 29.7715 26.3832 29.938 27.3015 29.939C27.7482 29.939 28.1815 29.8921 28.6019 29.7986C29.0222 29.7052 29.4293 29.5792 29.8234 29.4209L30.0992 30.975C29.6525 31.1875 29.1928 31.3337 28.7201 31.4135C28.2472 31.4931 27.7745 31.5329 27.3015 31.5329C26.1457 31.5329 25.0494 31.3274 24.0123 30.9162C22.9753 30.5047 22.0491 29.9134 21.2337 29.1419Z" fill="#CBCBCB"/>
<path d="M0 0H2V5H0V0Z" fill="#CBCBCB"/>
<path d="M0 0H5V2H0V0Z" fill="#CBCBCB"/>
<path d="M0 38H2V33H0V38Z" fill="#CBCBCB"/>
<path d="M0 38H5V36H0V38Z" fill="#CBCBCB"/>
<path d="M38 0H36V5H38V0Z" fill="#CBCBCB"/>
<path d="M38 0H33V2H38V0Z" fill="#CBCBCB"/>
<path d="M38 38H36V33H38V38Z" fill="#CBCBCB"/>
<path d="M38 38H33V36H38V38Z" fill="#CBCBCB"/>
</g>
</g>
</g>
<defs>
<filter id="filter0_g_1239_18360" x="49.3472" y="4.29251" width="73.6455" height="28.7509" filterUnits="userSpaceOnUse" color-interpolation-filters="sRGB">
<feFlood flood-opacity="0" result="BackgroundImageFix"/>
<feBlend mode="normal" in="SourceGraphic" in2="BackgroundImageFix" result="shape"/>
<feTurbulence type="fractalNoise" baseFrequency="inf inf" numOctaves="3" seed="21" />
<feDisplacementMap in="shape" scale="9.3056125640869141" xChannelSelector="R" yChannelSelector="G" result="displacedImage" width="100%" height="100%" />
<feMerge result="effect1_texture_1239_18360">
<feMergeNode in="displacedImage"/>
</feMerge>
</filter>
<clipPath id="clip0_1239_18360">
<rect width="38" height="38" fill="white"/>
</clipPath>
</defs>
</svg>
