<svg width="76" height="24" viewBox="0 0 76 24" fill="none" xmlns="http://www.w3.org/2000/svg">
<g opacity="0.6">
<g filter="url(#filter0_g_48_6381)">
<path d="M36.2661 5.88613C36.4595 5.88613 36.5561 6.17621 36.5561 6.75636L36.5884 7.14313C36.5669 7.28817 36.5561 7.40635 36.5561 7.49767L36.5884 7.56213L36.1371 8.11006C35.8148 8.11006 35.6215 8.33567 35.557 8.7869V9.14144C35.5677 9.50135 36.0942 10.017 37.1363 10.6885C37.7648 11.1935 38.0871 11.4943 38.1032 11.591C38.1516 11.591 38.2698 11.6662 38.4578 11.8166C39.3119 12.3484 39.9243 13.1112 40.2949 14.105C40.3809 14.4756 40.4238 14.7013 40.4238 14.7818C40.4077 14.8678 40.3862 14.9108 40.3594 14.9108C40.4024 14.986 40.4238 15.0827 40.4238 15.2008C40.4238 15.4909 40.3594 15.7273 40.2305 15.9099C40.1929 16.1946 40.0962 16.431 39.9404 16.619C39.5644 17.0917 39.3602 17.3281 39.328 17.3281C39.183 17.3281 38.9681 17.4248 38.6834 17.6182C38.0388 17.79 37.566 17.876 37.2652 17.876H37.1363L37.0718 17.8438C37.0504 17.3818 37.0396 17.038 37.0396 16.8124V15.9099C37.0396 15.8508 37.2652 15.7541 37.7165 15.6198C37.9313 15.4479 38.0388 15.2975 38.0388 15.1686V14.8141C38.0388 14.6529 37.8239 14.3199 37.3941 13.8149C37.3189 13.8149 36.438 13.0951 34.7512 11.6554C33.9508 10.8228 33.4674 10.1567 33.3008 9.65714C33.2417 9.59805 33.1665 9.3402 33.0752 8.8836V8.69021C33.0752 7.95427 33.4405 7.27743 34.1711 6.65967C34.6384 6.33736 34.95 6.17621 35.1058 6.17621H35.3636C35.3636 6.09026 35.6644 5.99356 36.2661 5.88613ZM37.233 5.88613C37.5714 5.97208 37.8508 6.0258 38.071 6.04728C38.071 6.09563 38.2429 6.17083 38.5867 6.2729C38.9627 6.41794 39.3925 6.75099 39.8759 7.27205C40.1123 7.71791 40.2305 8.05097 40.2305 8.27121V8.49683C40.3379 8.61501 40.3916 8.74393 40.3916 8.8836V9.07698C40.3916 9.33483 40.1553 9.46375 39.6825 9.46375C38.5222 9.46375 37.9421 9.38855 37.9421 9.23814C37.8508 8.59352 37.6896 8.27121 37.4586 8.27121C37.2867 8.15303 37.2008 8.04559 37.2008 7.9489C37.2008 7.81998 37.1793 7.73403 37.1363 7.69106V7.56213C37.1363 7.25057 37.1148 6.71339 37.0718 5.95059L37.233 5.88613ZM33.7198 14.0728C33.8273 14.0728 34.0314 14.105 34.3322 14.1695H34.9446C35.138 14.1695 35.2347 14.2876 35.2347 14.524V15.0075C35.3045 15.0075 35.4872 15.1901 35.7826 15.5554C36.2553 15.7219 36.4917 15.8401 36.4917 15.9099V17.5859C36.4917 17.7793 36.4165 17.876 36.2661 17.876C35.8417 17.876 35.2723 17.7148 34.5578 17.3925C34.2355 17.226 34.0421 17.0649 33.9777 16.9091L33.2041 16.2322V15.9099C33.2041 15.8884 33.2149 15.8777 33.2364 15.8777C33.1719 15.7219 33.1074 15.5393 33.043 15.3298H33.0752C32.9893 15.0988 32.9355 14.8409 32.9141 14.5562C32.9141 14.3843 33.0108 14.2339 33.2041 14.105L33.3653 14.1372H33.462C33.4835 14.1372 33.5694 14.1157 33.7198 14.0728ZM42.7445 6.01505C43.1527 6.12249 43.3569 6.24067 43.3569 6.36959C43.3139 6.45017 43.2924 6.53612 43.2924 6.62744V7.78775C43.2924 7.90056 43.2602 8.25509 43.1957 8.85137C43.2172 9.22202 43.2279 9.43689 43.2279 9.49598C43.2064 9.81829 43.1957 10.0869 43.1957 10.3018C43.1527 10.3071 43.1312 10.3286 43.1312 10.3662V10.7208C43.1312 10.7691 43.142 10.8121 43.1635 10.8497C43.142 10.8873 43.1312 10.9303 43.1312 10.9786V11.3009C43.1312 11.3117 43.1527 11.3439 43.1957 11.3976V12.3645C43.1527 13.0575 43.1312 13.4335 43.1312 13.4926V14.7174C43.1312 14.8409 43.1635 15.3459 43.2279 16.2322V17.4892C43.2279 17.5805 42.9593 17.6558 42.4222 17.7148C41.9602 17.6504 41.5842 17.6182 41.2941 17.6182C41.1652 17.6182 41.1007 17.0702 41.1007 15.9744V13.4281C41.1007 12.9447 41.1222 12.6439 41.1652 12.5257C41.1437 12.3054 41.1329 12.1335 41.1329 12.01V11.0431C41.1329 10.7476 41.1437 10.5435 41.1652 10.4307C41.1437 10.2265 41.1329 10.0009 41.1329 9.75383V8.33567C41.09 7.97039 41.0685 7.76626 41.0685 7.72329V6.98198C41.0685 6.92289 41.047 6.85843 41.004 6.78859C41.004 6.38033 41.2296 6.14398 41.6808 6.07951C42.1643 6.03654 42.5189 6.01505 42.7445 6.01505ZM47.4179 6.01505H47.8047C48.3419 6.07951 48.6105 6.28364 48.6105 6.62744C48.6105 6.91214 48.5568 7.10553 48.4493 7.20759V7.36875C48.5138 7.44932 48.546 7.52453 48.546 7.59436V14.943L48.5782 15.1364C48.5514 15.362 48.5084 15.5017 48.4493 15.5554V15.7165L48.546 15.8455C48.546 15.9636 48.5675 16.4041 48.6105 17.1669C48.6105 17.5322 48.2452 17.7148 47.5146 17.7148C47.0527 17.6504 46.7089 17.6182 46.4832 17.6182L46.451 17.5537C46.3651 15.2277 46.3221 13.8847 46.3221 13.5248C46.3221 13.3315 46.3328 12.8695 46.3543 12.1389C46.3436 12.0154 46.3113 11.9187 46.2576 11.8488V11.591C46.2576 11.5695 46.2791 11.4835 46.3221 11.3331V11.2364L46.2576 11.0108C46.2576 10.8927 46.2684 10.6885 46.2899 10.3984C46.2684 10.146 46.2576 9.96333 46.2576 9.85052C46.3006 9.70011 46.3221 9.58193 46.3221 9.49598C46.2791 9.36169 46.2576 9.25425 46.2576 9.17367C46.2576 8.64186 46.2361 8.10468 46.1932 7.56213C46.2254 7.56213 46.2576 7.5299 46.2899 7.46544V6.78859C46.2899 6.76173 46.2684 6.64355 46.2254 6.43405C46.3597 6.15472 46.7572 6.01505 47.4179 6.01505ZM43.9692 7.85221H44.0015C44.2754 8.59889 44.8448 9.94184 45.7097 11.8811V13.686L45.8386 16.3934H45.7742C45.3444 15.1847 44.6891 13.6484 43.8081 11.7844V10.9141C43.8081 10.7046 43.8403 9.96333 43.9048 8.69021V7.91667C43.9101 7.8737 43.9316 7.85221 43.9692 7.85221ZM50.915 6.01505H51.3018L51.5918 6.07951L51.7852 6.04728C52.086 6.04728 52.2364 6.22992 52.2364 6.59521C52.2794 7.34189 52.3009 7.97576 52.3009 8.49683V13.267C52.2364 14.7389 52.2042 15.5876 52.2042 15.8132V17.2958L52.2364 17.457C52.2364 17.5483 51.9571 17.6343 51.3984 17.7148C50.4315 17.6504 49.9481 17.5859 49.9481 17.5215L49.9158 17.3603V17.1669C49.9158 16.7748 49.9051 16.3021 49.8836 15.7488L49.9158 15.5876L49.8836 15.1364C49.9051 13.6323 49.9158 12.7191 49.9158 12.3968L50.0125 12.2356V12.1389C49.9481 12.0583 49.9158 11.9831 49.9158 11.9133V9.33483C49.9158 9.26499 49.9481 9.18979 50.0125 9.10921V8.94806C49.9373 8.94806 49.8621 8.20675 49.7869 6.72413C49.7869 6.2729 50.12 6.04728 50.7861 6.04728C50.7861 6.0258 50.829 6.01505 50.915 6.01505ZM53.1389 6.01505H53.2356C53.3162 6.07951 53.3914 6.11174 53.4612 6.11174H53.4934L53.7191 6.04728C54.2562 6.09563 54.5248 6.18158 54.5248 6.30513H54.7827C55.1909 6.41257 55.3951 6.49851 55.3951 6.56298H55.6529C56.1901 6.94437 56.4587 7.25594 56.4587 7.49767C56.4855 7.61048 56.5607 7.69643 56.6843 7.75552C56.8132 8.05097 56.9314 8.53443 57.0388 9.2059H57.0066C57.0496 9.31334 57.0711 9.56044 57.0711 9.94721V10.5918C57.0711 11.0269 57.0496 11.5749 57.0066 12.2356C57.0066 12.2571 57.0174 12.2678 57.0388 12.2678L57.0066 12.429V14.3306C57.0066 15.5231 56.6198 16.4256 55.8463 17.038C55.3897 17.4248 54.4443 17.6182 53.01 17.6182L52.9778 17.5537V17.3603C52.9778 16.9574 52.967 16.3665 52.9455 15.5876C53.0852 15.55 53.4612 15.507 54.0736 15.4587C54.3261 15.3029 54.4872 15.0665 54.5571 14.7496L54.5893 14.5562L54.5248 14.1372C54.6108 14.0083 54.6538 13.9116 54.6538 13.8471V13.7505C54.5678 13.6591 54.5248 13.5732 54.5248 13.4926V13.3637C54.5248 13.1166 54.5356 12.891 54.5571 12.6868C54.5302 12.3216 54.5087 12.1174 54.4926 12.0744C54.5356 11.6984 54.5571 11.3009 54.5571 10.8819C54.4926 10.8819 54.4604 10.71 54.4604 10.3662V9.07698C54.4604 8.91045 54.3744 8.69558 54.2025 8.43236C53.9769 8.23898 53.7728 8.14229 53.5901 8.14229C53.5901 8.1208 53.5794 8.11006 53.5579 8.11006H53.5257C53.5096 8.11006 53.4236 8.13154 53.2678 8.17452H53.0422C52.9778 8.17452 52.9455 8.03485 52.9455 7.75552V7.72329C52.9455 7.7018 52.9563 7.69106 52.9778 7.69106C52.9402 7.49767 52.8864 6.97123 52.8166 6.11174C52.9294 6.04728 53.0368 6.01505 53.1389 6.01505ZM60.8904 5.93447H61.0516C61.1805 5.94522 61.245 5.97745 61.245 6.03117V7.7394C61.245 7.86295 61.0193 8.11006 60.5681 8.48071C60.5037 8.48071 60.4499 8.71707 60.407 9.18979V10.8013C60.407 10.8174 60.3855 10.9034 60.3425 11.0592V11.1559L60.407 11.2526V13.2509L60.3103 13.3798V13.7021L60.3747 13.7988V14.6046C60.4338 15.3996 60.552 15.7971 60.7293 15.7971C61.0301 15.9207 61.1805 16.0066 61.1805 16.055C61.202 16.7103 61.2235 17.1293 61.245 17.312C61.2181 17.6558 61.1859 17.8706 61.1483 17.9566C60.6111 17.9566 59.9665 17.7524 59.2144 17.3442C58.6343 16.8285 58.3334 16.4632 58.312 16.2483C58.0756 15.7971 57.9574 15.217 57.9574 14.5079V13.3476C58.0004 13.2938 58.0219 13.2616 58.0219 13.2509V13.0897L57.9574 12.993V9.25425C57.9574 7.8737 58.4624 6.92826 59.4723 6.41794C60.0202 6.16009 60.407 6.03117 60.6326 6.03117C60.6487 5.96671 60.7346 5.93447 60.8904 5.93447ZM61.954 5.93447H62.2441C62.9102 6.0634 63.4581 6.25678 63.8879 6.51463C64.7689 7.1109 65.2094 8.11006 65.2094 9.5121V9.54433C65.2094 10.06 65.0482 10.3179 64.7259 10.3179L64.5647 10.3501C64.0705 10.3286 63.6193 10.3179 63.211 10.3179H62.792C62.7007 10.3179 62.647 10.1675 62.6309 9.86664V8.83525C62.6309 8.52906 62.416 8.24972 61.9863 7.99725C61.9218 6.89603 61.8896 6.21918 61.8896 5.96671L61.954 5.93447ZM64.7904 13.2831C65.0697 13.2831 65.2094 13.4443 65.2094 13.7666V13.7988C65.2094 15.2384 64.9837 16.1731 64.5325 16.6029C64.3767 17.038 63.8181 17.4463 62.8565 17.8277L62.0185 17.9566L61.9863 17.8921C61.9433 17.1938 61.9218 16.5277 61.9218 15.8938C62.416 15.7541 62.6631 15.4855 62.6631 15.088V14.7657C62.6631 14.7335 62.6416 14.5616 62.5987 14.25V14.1533C62.5987 14.0781 62.6416 13.9922 62.7276 13.8955V13.831C62.7276 13.7719 62.7061 13.7075 62.6631 13.6376C62.6631 13.5517 62.7598 13.4443 62.9532 13.3153H63.2433C63.6515 13.3153 64.1672 13.3046 64.7904 13.2831ZM72.3324 6.01505C72.6762 6.01505 72.8481 6.21918 72.8481 6.62744V6.85305C72.8481 7.69106 72.7406 8.11006 72.5258 8.11006C72.5258 8.13154 72.4935 8.14229 72.4291 8.14229H72.2357C72.0799 8.14229 71.9617 8.13154 71.8811 8.11006C71.7415 8.13154 71.6018 8.14229 71.4621 8.14229H71.0431C71.0002 8.14766 70.9787 8.16915 70.9787 8.20675C70.4308 8.22824 70.0655 8.23898 69.8828 8.23898C69.5981 8.23898 68.889 8.22824 67.7556 8.20675C67.7556 8.16377 67.7341 8.14229 67.6911 8.14229H67.4011V8.20675C67.0035 8.22824 66.7135 8.23898 66.5308 8.23898H66.1763C66.1333 8.23898 66.1118 8.20675 66.1118 8.14229H65.9507C65.7358 8.12617 65.6284 8.06171 65.6284 7.9489C65.5854 7.29354 65.5639 6.87454 65.5639 6.6919C65.5639 6.28364 65.7036 6.07951 65.9829 6.07951L66.144 6.11174H67.0143L67.111 6.17621H67.1432C67.2936 6.13323 67.3796 6.11174 67.4011 6.11174H71.1721C71.8704 6.04728 72.2572 6.01505 72.3324 6.01505ZM68.3035 8.81913V8.85137L68.368 8.81913H70.3341L70.4308 8.8836L70.3985 9.2059V15.4909C70.3985 15.6843 70.4308 16.2107 70.4952 17.0702C70.4952 17.5 70.2051 17.7148 69.625 17.7148C68.5721 17.6504 68.0457 17.5752 68.0457 17.4892C67.9812 17.2744 67.949 16.6297 67.949 15.5554V14.943C67.949 14.6583 67.9597 14.293 67.9812 13.8471C67.9812 13.8257 67.9705 13.8149 67.949 13.8149L67.9812 13.4926V10.8497L68.0457 10.753V10.4951C68.0457 10.4737 68.0242 10.3877 67.9812 10.2373V10.1728C67.9812 9.95259 67.949 9.53358 67.8845 8.91583C67.9758 8.87285 68.1155 8.84062 68.3035 8.81913Z" fill="#CBCBCB"/>
</g>
<g clip-path="url(#clip0_48_6381)">
<mask id="mask0_48_6381" style="mask-type:luminance" maskUnits="userSpaceOnUse" x="0" y="0" width="24" height="24">
<path d="M23.5156 0H0V23.5156H23.5156V0Z" fill="white"/>
</mask>
<g mask="url(#mask0_48_6381)">
<path d="M11.7789 4.38491C13.6242 4.38491 15.3062 4.7811 16.8249 5.57343C18.3437 6.36579 19.6746 7.54549 20.8177 9.11253L20.0339 9.70042C19.005 8.26337 17.8009 7.18165 16.4212 6.45527C15.0417 5.7289 13.4942 5.36539 11.7789 5.36474C10.0805 5.36474 8.5455 5.73217 7.17374 6.46703C5.802 7.2019 4.60173 8.29603 3.57291 9.74942L2.78906 9.18602C3.94852 7.60199 5.28368 6.40596 6.79455 5.59793C8.30544 4.78991 9.96688 4.38557 11.7789 4.38491ZM11.7789 6.6875C14.0161 6.6875 15.9187 7.43053 17.4863 8.91657C19.054 10.4026 19.8378 12.2153 19.8378 14.3546C19.8378 15.1548 19.5479 15.8325 18.9678 16.3877C18.3878 16.9429 17.6816 17.2205 16.8495 17.2205C16.0003 17.2205 15.2817 16.9429 14.6938 16.3877C14.106 15.8325 13.812 15.1548 13.812 14.3546C13.812 13.832 13.616 13.3829 13.2241 13.0073C12.8322 12.6317 12.3504 12.4439 11.7789 12.4439C11.2073 12.4439 10.7256 12.6317 10.3336 13.0073C9.94173 13.3829 9.74576 13.832 9.74576 14.3546C9.74576 15.906 10.2112 17.2163 11.142 18.2856C12.0728 19.3548 13.4446 20.1594 15.2572 20.6988L15.0123 21.6542C13.02 21.1479 11.481 20.2618 10.3954 18.9959C9.30975 17.7301 8.76661 16.1829 8.76595 14.3546C8.76595 13.5544 9.0599 12.8728 9.64779 12.3097C10.2357 11.7466 10.946 11.4647 11.7789 11.4641C12.6117 11.4634 13.3221 11.7453 13.91 12.3097C14.4979 12.874 14.7918 13.5557 14.7918 14.3546C14.7918 14.8771 14.992 15.3262 15.3924 15.7018C15.7928 16.0775 16.2786 16.2653 16.8495 16.2653C17.4047 16.2653 17.8783 16.0775 18.2702 15.7018C18.6621 15.3262 18.8581 14.8771 18.8581 14.3546C18.8581 12.4929 18.1721 10.9089 16.8004 9.60245C15.4287 8.29603 13.763 7.64281 11.8034 7.64281C9.84375 7.64281 8.17806 8.29603 6.80631 9.60245C5.43457 10.9089 4.74869 12.4847 4.74869 14.3301C4.74869 14.9016 4.8101 15.514 4.93291 16.1672C5.0557 16.8205 5.25559 17.539 5.53256 18.3228L4.65072 18.6657C4.35678 17.9146 4.13632 17.1797 3.98934 16.4612C3.84238 15.7426 3.76888 15.0404 3.76888 14.3546C3.76888 12.2153 4.54457 10.4026 6.09595 8.91657C7.64733 7.43053 9.54164 6.6875 11.7789 6.6875ZM11.7789 1.98438C12.8404 1.98438 13.8773 2.11502 14.8898 2.37629C15.9023 2.63758 16.9882 3.06217 18.1477 3.65006L17.7558 4.55639C16.629 3.98482 15.5963 3.57657 14.6576 3.33162C13.7189 3.08667 12.7594 2.96418 11.7789 2.96418C10.7011 2.96418 9.70494 3.09483 8.79045 3.35611C7.87596 3.6174 6.92063 4.03382 5.92447 4.60538L5.48356 3.74805C6.56136 3.14382 7.60649 2.69898 8.61897 2.41353C9.63145 2.12807 10.6848 1.98503 11.7789 1.98438ZM11.7789 9.06355C13.4119 9.06355 14.7471 9.60245 15.7844 10.6802C16.8216 11.758 17.34 13.1461 17.3394 14.8445H16.3595C16.3595 13.4074 15.9349 12.248 15.0858 11.3661C14.2366 10.4843 13.1343 10.0434 11.7789 10.0434C10.5214 10.0434 9.45181 10.464 8.56998 11.3054C7.68814 12.1467 7.24723 13.1631 7.24723 14.3546C7.24723 15.612 7.46769 16.7103 7.90861 17.6497C8.34952 18.589 9.14155 19.6543 10.2847 20.8458L9.59879 21.5317C8.37402 20.2579 7.51276 19.086 7.01502 18.0162C6.51727 16.9461 6.26807 15.7257 6.26741 14.3546C6.26741 12.8848 6.8024 11.6356 7.87236 10.6068C8.94232 9.57796 10.2445 9.06355 11.7789 9.06355ZM12.8812 18.0534C12.3586 17.5635 11.9585 16.9631 11.6809 16.2525C11.4033 15.5418 11.2645 14.7458 11.2645 13.8646H12.2443C12.2443 14.5995 12.3586 15.2691 12.5872 15.8733C12.8159 16.4775 13.1425 16.9756 13.567 17.3675C13.9916 17.7432 14.4695 18.0328 15.0005 18.2365C15.5316 18.4404 16.0825 18.5427 16.6534 18.5433C16.9311 18.5433 17.2005 18.5145 17.4618 18.457C17.7231 18.3996 17.9762 18.3222 18.2212 18.2248L18.3926 19.1801C18.115 19.3108 17.8292 19.4006 17.5353 19.4497C17.2413 19.4986 16.9474 19.523 16.6534 19.523C15.9349 19.523 15.2533 19.3967 14.6086 19.144C13.9639 18.8911 13.3881 18.5276 12.8812 18.0534Z" fill="#CBCBCB"/>
<path d="M0 0H0.58789V2.93945H0V0Z" fill="#CBCBCB"/>
<path d="M0 0H2.93945V0.58789H0V0Z" fill="#CBCBCB"/>
<path d="M0 23.5176H0.58789V20.5781H0V23.5176Z" fill="#CBCBCB"/>
<path d="M0 23.5137H2.93945V22.9258H0V23.5137Z" fill="#CBCBCB"/>
<path d="M23.5176 0H22.9297V2.93945H23.5176V0Z" fill="#CBCBCB"/>
<path d="M23.5098 0H20.5703V0.58789H23.5098V0Z" fill="#CBCBCB"/>
<path d="M23.5176 23.5176H22.9297V20.5781H23.5176V23.5176Z" fill="#CBCBCB"/>
<path d="M23.5098 23.5137H20.5703V22.9258H23.5098V23.5137Z" fill="#CBCBCB"/>
</g>
</g>
</g>
<defs>
<filter id="filter0_g_48_6381" x="30.0262" y="2.99884" width="45.7133" height="17.8461" filterUnits="userSpaceOnUse" color-interpolation-filters="sRGB">
<feFlood flood-opacity="0" result="BackgroundImageFix"/>
<feBlend mode="normal" in="SourceGraphic" in2="BackgroundImageFix" result="shape"/>
<feTurbulence type="fractalNoise" baseFrequency="inf inf" numOctaves="3" seed="21" />
<feDisplacementMap in="shape" scale="5.7757644653320312" xChannelSelector="R" yChannelSelector="G" result="displacedImage" width="100%" height="100%" />
<feMerge result="effect1_texture_48_6381">
<feMergeNode in="displacedImage"/>
</feMerge>
</filter>
<clipPath id="clip0_48_6381">
<rect width="23.5156" height="23.5156" fill="white"/>
</clipPath>
</defs>
</svg>
