<svg width="74" height="50" viewBox="0 0 74 50" fill="none" xmlns="http://www.w3.org/2000/svg">
<g opacity="0.4">
<path d="M10 36V37.7565H7.2619V45H4.74405V37.7565H2V36H10Z" fill="#CBCBCB"/>
<path d="M11.4708 40.405C11.7629 39.9692 12.125 39.628 12.5572 39.3785C12.9895 39.1262 13.4699 39 14 39V41.5634H13.3224C12.7062 41.5634 12.2433 41.6953 11.9322 41.9591C11.6241 42.2201 11.4708 42.6746 11.4708 43.324V47H9V39.086H11.4708V40.405Z" fill="#CBCBCB"/>
<path d="M14 42.9831C14 42.1873 14.1455 41.4873 14.4393 40.8817C14.7358 40.2775 15.1366 39.8141 15.6417 39.4901C16.1496 39.1634 16.7179 39 17.3439 39C17.8778 39 18.3459 39.1113 18.7495 39.3324C19.1517 39.5549 19.4605 39.8479 19.6774 40.2113V39.1127H22V46.8873H19.6774V45.7887C19.4537 46.1493 19.1393 46.4423 18.733 46.6676C18.3294 46.8887 17.8614 47 17.3274 47C16.7124 47 16.1496 46.8352 15.6417 46.5042C15.1366 46.1746 14.7358 45.7042 14.4393 45.0958C14.1455 44.4873 14 43.7831 14 42.9831ZM19.6774 43C19.6774 42.4028 19.5154 41.9338 19.1942 41.5915C18.8758 41.2465 18.4859 41.0732 18.0247 41.0732C17.5594 41.0732 17.1654 41.2451 16.8442 41.5859C16.5257 41.9239 16.3665 42.3901 16.3665 42.9831C16.3665 43.5803 16.5257 44.0535 16.8442 44.4028C17.1654 44.7493 17.5594 44.9211 18.0247 44.9211C18.4859 44.9211 18.8758 44.7507 19.1942 44.4085C19.5154 44.0634 19.6774 43.5944 19.6774 43Z" fill="#CBCBCB"/>
<path d="M32 39V46.914H29.5407V45.8358C29.2878 46.1885 28.9491 46.471 28.5233 46.6846C28.0959 46.8953 27.6235 47 27.1047 47C26.4913 47 25.9506 46.8667 25.4826 46.5986C25.0131 46.3276 24.6483 45.9376 24.3895 45.4287C24.1294 44.9168 24 44.3147 24 43.6222V39H26.4477V43.2953C26.4477 43.8272 26.5843 44.2401 26.8605 44.534C27.1395 44.8251 27.5131 44.9699 27.9826 44.9699C28.4622 44.9699 28.843 44.8251 29.1221 44.534C29.4012 44.2401 29.5407 43.8272 29.5407 43.2953V39H32Z" fill="#CBCBCB"/>
<path d="M43 36V45H40.6345V39.601L38.4647 45H36.5521L34.3655 39.5907V45H32V36H34.7961L37.5252 42.2332L40.2206 36H43Z" fill="#CBCBCB"/>
<path d="M52 42.8704C52 43.0958 51.9841 43.3296 51.9538 43.569H46.43C46.4675 44.0535 46.6277 44.4239 46.9091 44.6789C47.189 44.9352 47.5339 45.062 47.9423 45.062C48.5498 45.062 48.9726 44.8113 49.2121 44.307H51.8153C51.6797 44.8183 51.4372 45.2789 51.088 45.6873C50.7417 46.0972 50.3059 46.4183 49.7835 46.6507C49.2597 46.8845 48.6753 47 48.0289 47C47.2468 47 46.5512 46.8394 45.9394 46.5155C45.3304 46.1887 44.8557 45.7239 44.5137 45.1183C44.1703 44.5141 44 43.8085 44 43C44 42.193 44.1688 41.4873 44.5079 40.8817C44.8456 40.2775 45.3189 39.8141 45.9278 39.4901C46.5397 39.1634 47.2395 39 48.0289 39C48.798 39 49.4834 39.1577 50.0837 39.4732C50.684 39.7887 51.153 40.2394 51.4921 40.8254C51.8297 41.4113 52 42.093 52 42.8704ZM49.5007 42.2451C49.5007 41.8366 49.3564 41.5113 49.0678 41.2704C48.7821 41.031 48.4271 40.9099 48 40.9099C47.5916 40.9099 47.2468 41.0268 46.9668 41.2592C46.6854 41.4887 46.5108 41.8169 46.4416 42.2451H49.5007Z" fill="#CBCBCB"/>
<path d="M53.4708 40.405C53.7629 39.9692 54.125 39.628 54.5572 39.3785C54.9895 39.1262 55.4699 39 56 39V41.5634H55.3224C54.7062 41.5634 54.2433 41.6953 53.9322 41.9591C53.6241 42.2201 53.4708 42.6746 53.4708 43.324V47H51V39.086H53.4708V40.405Z" fill="#CBCBCB"/>
<path d="M57 43C57 42.193 57.1726 41.4873 57.5192 40.8817C57.8643 40.2775 58.3466 39.8141 58.9646 39.4901C59.5811 39.1634 60.2891 39 61.0885 39C62.1106 39 62.9646 39.2563 63.649 39.7662C64.3363 40.2775 64.7876 40.9972 65 41.9239H62.3451C62.1209 41.331 61.6873 41.0338 61.0472 41.0338C60.587 41.0338 60.2212 41.2056 59.9499 41.5465C59.6785 41.8845 59.5428 42.369 59.5428 43C59.5428 43.631 59.6785 44.1183 59.9499 44.4592C60.2212 44.7972 60.587 44.9662 61.0472 44.9662C61.6873 44.9662 62.1209 44.6676 62.3451 44.0704H65C64.7876 44.9831 64.3348 45.7014 63.6431 46.2225C62.9499 46.7408 62.0988 47 61.0885 47C60.2891 47 59.5811 46.8394 58.9646 46.5155C58.3466 46.1887 57.8643 45.7239 57.5192 45.1183C57.1726 44.5141 57 43.8085 57 43Z" fill="#CBCBCB"/>
<path d="M69.9468 38.1431C70.8674 38.1431 71.6045 38.4011 72.161 38.9148C72.7203 39.4297 73 40.1363 73 41.0333V45H70.5528V41.3135C70.5528 40.8613 70.413 40.5098 70.1333 40.2567C69.8536 40.0048 69.4778 39.8782 69.0087 39.8782C68.5382 39.8782 68.1639 40.0048 67.8842 40.2567C67.6045 40.5098 67.4647 40.8613 67.4647 41.3135V45H65V36H67.4647V39.1262C67.7167 38.8288 68.059 38.5904 68.4902 38.4134C68.9213 38.234 69.4064 38.1431 69.9468 38.1431Z" fill="#CBCBCB"/>
<mask id="mask0_1239_18378" style="mask-type:luminance" maskUnits="userSpaceOnUse" x="23" y="2" width="27" height="30">
<path d="M23 2H50V32H23V2Z" fill="white"/>
</mask>
<g mask="url(#mask0_1239_18378)">
<mask id="mask1_1239_18378" style="mask-type:luminance" maskUnits="userSpaceOnUse" x="23" y="2" width="27" height="30">
<path fill-rule="evenodd" clip-rule="evenodd" d="M28.9996 24.103C28.5023 23.7072 28.0395 23.2692 27.6675 22.7889C26.072 20.7257 26.0004 17.155 26.0004 14.6831V10.9997H23V14.6831C23 20.3722 23.8642 23.2462 26.0004 25.4349C26.8097 26.27 27.8004 27.0013 28.9996 27.7454C29.8817 28.2974 30.8839 28.8622 32 29.4795V12.2357L35.0004 15.2351V31.1714C35.4977 31.448 36.0014 31.7234 36.5 32C36.9973 31.7234 37.5023 31.448 37.9996 31.1714V15.2351L41 12.2357V29.4859C42.1161 28.8673 43.1119 28.3038 44.0004 27.7518C45.1945 27.0013 46.1903 26.27 46.9996 25.4413C49.1358 23.2513 50 20.3722 50 14.6895V11.0061H46.9996V14.6895C46.9996 17.1614 46.9216 20.7372 45.3312 22.8017C44.9592 23.282 44.4977 23.72 44.0004 24.1158V7.99898H41L37.9996 10.9997V4.99949H46.9945V7.99898H49.9936V2H23V7.99898H26.0004V4.99949H34.994V10.9997L31.9936 7.99898H28.9945V24.103H28.9996Z" fill="white"/>
</mask>
<g mask="url(#mask1_1239_18378)">
<path d="M23 2V32H50V2H23Z" fill="#CBCBCB"/>
</g>
</g>
</g>
</svg>
