<svg width="59" height="40" viewBox="0 0 59 40" fill="none" xmlns="http://www.w3.org/2000/svg">
<g opacity="0.6">
<path d="M7 30V31.3661H4.94643V37H3.05804V31.3661H1V30H7Z" fill="#CBCBCB"/>
<path d="M8.97664 32.0538C9.21028 31.7269 9.5 31.471 9.84579 31.2839C10.1916 31.0946 10.5759 31 11 31V32.9226H10.4579C9.96495 32.9226 9.59463 33.0215 9.34579 33.2194C9.0993 33.4151 8.97664 33.7559 8.97664 34.243V37H7V31.0645H8.97664V32.0538Z" fill="#CBCBCB"/>
<path d="M11 33.9873C11 33.3905 11.1091 32.8655 11.3294 32.4113C11.5518 31.9581 11.8524 31.6106 12.2313 31.3676C12.6122 31.1225 13.0384 31 13.5079 31C13.9084 31 14.2594 31.0835 14.5621 31.2493C14.8638 31.4162 15.0954 31.6359 15.2581 31.9085V31.0845H17V36.9155H15.2581V36.0915C15.0903 36.362 14.8545 36.5817 14.5498 36.7507C14.2471 36.9165 13.896 37 13.4955 37C13.0343 37 12.6122 36.8764 12.2313 36.6282C11.8524 36.381 11.5518 36.0282 11.3294 35.5718C11.1091 35.1155 11 34.5873 11 33.9873ZM15.2581 34C15.2581 33.5521 15.1366 33.2004 14.8957 32.9437C14.6568 32.6849 14.3644 32.5549 14.0185 32.5549C13.6695 32.5549 13.3741 32.6838 13.1332 32.9394C12.8943 33.193 12.7749 33.5426 12.7749 33.9873C12.7749 34.4352 12.8943 34.7901 13.1332 35.0521C13.3741 35.312 13.6695 35.4408 14.0185 35.4408C14.3644 35.4408 14.6568 35.313 14.8957 35.0563C15.1366 34.7975 15.2581 34.4458 15.2581 34Z" fill="#CBCBCB"/>
<path d="M25 31V36.9355H23.1555V36.1269C22.9658 36.3914 22.7118 36.6032 22.3924 36.7634C22.0719 36.9215 21.7177 37 21.3285 37C20.8685 37 20.4629 36.9 20.1119 36.6989C19.7598 36.4957 19.4862 36.2032 19.2922 35.8215C19.097 35.4376 19 34.986 19 34.4667V31H20.8358V34.2215C20.8358 34.6204 20.9382 34.9301 21.1453 35.1505C21.3547 35.3688 21.6348 35.4774 21.9869 35.4774C22.3467 35.4774 22.6323 35.3688 22.8416 35.1505C23.0509 34.9301 23.1555 34.6204 23.1555 34.2215V31H25Z" fill="#CBCBCB"/>
<path d="M34 30V37H32.2796V32.8008L30.7016 37H29.3106L27.7204 32.7927V37H26V30H28.0336L30.0183 34.848L31.9786 30H34Z" fill="#CBCBCB"/>
<path d="M41 33.9028C41 34.0718 40.9881 34.2472 40.9654 34.4268H36.8225C36.8506 34.7901 36.9708 35.068 37.1818 35.2592C37.3918 35.4514 37.6504 35.5465 37.9567 35.5465C38.4123 35.5465 38.7294 35.3585 38.9091 34.9803H40.8615C40.7597 35.3637 40.5779 35.7092 40.316 36.0155C40.0563 36.3229 39.7294 36.5637 39.3377 36.738C38.9448 36.9134 38.5065 37 38.0216 37C37.4351 37 36.9134 36.8796 36.4545 36.6366C35.9978 36.3915 35.6418 36.043 35.3853 35.5887C35.1277 35.1356 35 34.6063 35 34C35 33.3947 35.1266 32.8655 35.381 32.4113C35.6342 31.9581 35.9892 31.6106 36.4459 31.3676C36.9048 31.1225 37.4297 31 38.0216 31C38.5985 31 39.1126 31.1183 39.5628 31.3549C40.013 31.5915 40.3647 31.9296 40.619 32.369C40.8723 32.8085 41 33.3197 41 33.9028ZM39.1255 33.4338C39.1255 33.1275 39.0173 32.8835 38.8009 32.7028C38.5866 32.5232 38.3203 32.4324 38 32.4324C37.6937 32.4324 37.4351 32.5201 37.2251 32.6944C37.0141 32.8665 36.8831 33.1127 36.8312 33.4338H39.1255Z" fill="#CBCBCB"/>
<path d="M42.9766 32.0538C43.2103 31.7269 43.5 31.471 43.8458 31.2839C44.1916 31.0946 44.5759 31 45 31V32.9226H44.4579C43.965 32.9226 43.5946 33.0215 43.3458 33.2194C43.0993 33.4151 42.9766 33.7559 42.9766 34.243V37H41V31.0645H42.9766V32.0538Z" fill="#CBCBCB"/>
<path d="M45 34C45 33.3947 45.1294 32.8655 45.3894 32.4113C45.6482 31.9581 46.01 31.6106 46.4735 31.3676C46.9358 31.1225 47.4668 31 48.0664 31C48.833 31 49.4735 31.1923 49.9867 31.5746C50.5022 31.9581 50.8407 32.4979 51 33.193H49.0088C48.8407 32.7482 48.5155 32.5254 48.0354 32.5254C47.6903 32.5254 47.4159 32.6542 47.2124 32.9099C47.0088 33.1634 46.9071 33.5268 46.9071 34C46.9071 34.4732 47.0088 34.8387 47.2124 35.0944C47.4159 35.3479 47.6903 35.4746 48.0354 35.4746C48.5155 35.4746 48.8407 35.2507 49.0088 34.8028H51C50.8407 35.4873 50.5011 36.0261 49.9823 36.4169C49.4624 36.8056 48.8241 37 48.0664 37C47.4668 37 46.9358 36.8796 46.4735 36.6366C46.01 36.3915 45.6482 36.043 45.3894 35.5887C45.1294 35.1356 45 34.6063 45 34Z" fill="#CBCBCB"/>
<path d="M55.7101 30.905C56.4006 30.905 56.9534 31.1344 57.3707 31.5909C57.7902 32.0486 58 32.6767 58 33.4741V37H56.1646V33.7231C56.1646 33.3211 56.0597 33.0087 55.85 32.7837C55.6402 32.5598 55.3583 32.4473 55.0066 32.4473C54.6537 32.4473 54.3729 32.5598 54.1631 32.7837C53.9534 33.0087 53.8485 33.3211 53.8485 33.7231V37H52V29H53.8485V31.7788C54.0375 31.5145 54.2942 31.3026 54.6176 31.1453C54.941 30.9858 55.3048 30.905 55.7101 30.905Z" fill="#CBCBCB"/>
<mask id="mask0_41_804" style="mask-type:luminance" maskUnits="userSpaceOnUse" x="19" y="2" width="22" height="24">
<path d="M19 2H41V26H19V2Z" fill="white"/>
</mask>
<g mask="url(#mask0_41_804)">
<mask id="mask1_41_804" style="mask-type:luminance" maskUnits="userSpaceOnUse" x="19" y="2" width="22" height="24">
<path fill-rule="evenodd" clip-rule="evenodd" d="M23.8885 19.6824C23.4833 19.3658 23.1063 19.0154 22.8031 18.6311C21.5031 16.9805 21.4448 14.124 21.4448 12.1465V9.19979H19V12.1465C19 16.6977 19.7042 18.9969 21.4448 20.7479C22.1042 21.416 22.9115 22.001 23.8885 22.5963C24.6073 23.0379 25.424 23.4898 26.3333 23.9836V10.1885L28.7781 12.5881V25.3371C29.1833 25.5584 29.5938 25.7787 30 26C30.4052 25.7787 30.8167 25.5584 31.2219 25.3371V12.5881L33.6667 10.1885V23.9887C34.576 23.4939 35.3875 23.043 36.1115 22.6014C37.0844 22.001 37.8958 21.416 38.5552 20.7531C40.2958 19.001 41 16.6977 41 12.1516V9.20492H38.5552V12.1516C38.5552 14.1291 38.4917 16.9898 37.1958 18.6414C36.8927 19.0256 36.5167 19.376 36.1115 19.6926V6.79918H33.6667L31.2219 9.19979V4.39959H38.551V6.79918H40.9948V2H19V6.79918H21.4448V4.39959H28.7729V9.19979L26.3281 6.79918H23.8844V19.6824H23.8885Z" fill="white"/>
</mask>
<g mask="url(#mask1_41_804)">
<path d="M19 2V26H41V2H19Z" fill="#CBCBCB"/>
</g>
</g>
</g>
</svg>
