<svg width="1906" height="223" viewBox="0 0 1906 223" fill="none" xmlns="http://www.w3.org/2000/svg">
<path opacity="0.3" d="M1904 87.5H1619.5L1526.5 195.406H1494.5H411H375L213.5 86H109.5L75 111.692H0" stroke="url(#paint0_linear_40004520_7412)"/>
<path opacity="0.3" d="M0 153.5H106L154 211.998H281L369.5 44.498H1494L1616.98 213.5H1765.5L1835.65 147H1905" stroke="url(#paint1_linear_40004520_7412)"/>
<path opacity="0.3" d="M0.5 52.9996H99.5L139 14.4995H242.5L395 125.062H1517L1603.5 9.50195H1751L1837.5 59.4428H1905.5" stroke="url(#paint2_linear_40004520_7412)"/>
<rect x="129" y="5" width="20" height="20" rx="10" fill="#A1A1AA"/>
<path d="M139.001 8.33398C142.683 8.33398 145.667 11.3187 145.667 15.0007C145.667 18.6827 142.683 21.6673 139.001 21.6673C137.822 21.6693 136.665 21.3576 135.647 20.764L132.337 21.6673L133.238 18.3553C132.644 17.3373 132.332 16.1793 132.334 15.0007C132.334 11.3187 135.319 8.33398 139.001 8.33398ZM136.729 11.8673L136.595 11.8727C136.509 11.8786 136.425 11.9012 136.347 11.9393C136.275 11.9803 136.209 12.0315 136.151 12.0913C136.071 12.1667 136.026 12.232 135.977 12.2953C135.731 12.6159 135.598 13.0095 135.6 13.414C135.601 13.7407 135.687 14.0587 135.82 14.356C136.093 14.9573 136.541 15.594 137.133 16.184C137.276 16.326 137.416 16.4687 137.567 16.6013C138.302 17.2489 139.179 17.716 140.127 17.9653L140.505 18.0233C140.629 18.03 140.752 18.0207 140.876 18.0147C141.07 18.0044 141.26 17.9519 141.431 17.8607C141.519 17.8155 141.604 17.7666 141.687 17.714C141.687 17.714 141.715 17.6949 141.77 17.654C141.86 17.5873 141.915 17.54 141.99 17.462C142.046 17.4042 142.093 17.3371 142.13 17.2607C142.182 17.152 142.234 16.9447 142.255 16.772C142.271 16.64 142.267 16.568 142.265 16.5233C142.262 16.452 142.203 16.378 142.138 16.3467L141.75 16.1727C141.75 16.1727 141.17 15.92 140.815 15.7587C140.778 15.7425 140.738 15.7332 140.698 15.7313C140.652 15.7265 140.606 15.7316 140.563 15.7462C140.519 15.7609 140.479 15.7846 140.446 15.816C140.443 15.8147 140.398 15.8527 139.916 16.4367C139.888 16.4738 139.85 16.5019 139.807 16.5174C139.763 16.5328 139.716 16.5349 139.671 16.5233C139.627 16.5117 139.585 16.497 139.543 16.4793C139.461 16.4447 139.432 16.4313 139.375 16.4073C138.993 16.2406 138.638 16.015 138.325 15.7387C138.241 15.6653 138.163 15.5853 138.083 15.508C137.821 15.2568 137.592 14.9726 137.403 14.6627L137.364 14.5993C137.336 14.5565 137.313 14.5107 137.296 14.4627C137.271 14.3647 137.337 14.286 137.337 14.286C137.337 14.286 137.499 14.1087 137.574 14.0127C137.647 13.9193 137.709 13.8287 137.749 13.764C137.828 13.6373 137.853 13.5073 137.811 13.4067C137.625 12.9507 137.432 12.4971 137.233 12.046C137.193 11.9567 137.077 11.8927 136.971 11.88C136.935 11.8755 136.899 11.872 136.863 11.8693C136.773 11.8642 136.683 11.8651 136.594 11.872L136.729 11.8673Z" fill="black"/>
<rect x="271" y="200" width="20" height="20" rx="10" fill="#A1A1AA"/>
<path d="M287 204.996C287 205.129 286.947 205.256 286.854 205.35C286.76 205.443 286.633 205.496 286.5 205.496H285.5V214.996C285.5 215.129 285.447 215.256 285.354 215.35C285.26 215.443 285.133 215.496 285 215.496H282.5C282.411 215.496 282.323 215.472 282.246 215.426C282.169 215.381 282.106 215.316 282.062 215.237L277.5 206.943V214.496H278.5C278.633 214.496 278.76 214.549 278.854 214.643C278.947 214.736 279 214.863 279 214.996C279 215.129 278.947 215.256 278.854 215.35C278.76 215.443 278.633 215.496 278.5 215.496H275.5C275.367 215.496 275.24 215.443 275.146 215.35C275.053 215.256 275 215.129 275 214.996C275 214.863 275.053 214.736 275.146 214.643C275.24 214.549 275.367 214.496 275.5 214.496H276.5V205.496H275.5C275.367 205.496 275.24 205.443 275.146 205.35C275.053 205.256 275 205.129 275 204.996C275 204.863 275.053 204.736 275.146 204.643C275.24 204.549 275.367 204.496 275.5 204.496H279.5C279.589 204.496 279.677 204.52 279.754 204.566C279.831 204.611 279.894 204.677 279.938 204.755L284.5 213.049V205.496H283.5C283.367 205.496 283.24 205.443 283.146 205.35C283.053 205.256 283 205.129 283 204.996C283 204.863 283.053 204.736 283.146 204.643C283.24 204.549 283.367 204.496 283.5 204.496H286.5C286.633 204.496 286.76 204.549 286.854 204.643C286.947 204.736 287 204.863 287 204.996Z" fill="black"/>
<rect x="360" y="35" width="20" height="20" rx="10" fill="#A1A1AA"/>
<path opacity="0.7" d="M370.147 40.9858C371.095 40.9697 372.011 41.3281 372.696 41.9831L374.608 40.0711C373.402 38.937 371.803 38.3146 370.147 38.3344C368.911 38.3342 367.7 38.6776 366.648 39.3263C365.595 39.975 364.744 40.9034 364.189 42.0078L366.417 43.7344C366.673 42.9436 367.171 42.253 367.84 41.76C368.509 41.2669 369.316 40.9961 370.147 40.9858Z" fill="black"/>
<path d="M364.189 42.0039C363.723 42.9329 363.48 43.9579 363.48 44.9972C363.48 46.0366 363.723 47.0616 364.189 47.9906L366.417 46.2639C366.137 45.4426 366.137 44.5519 366.417 43.7306L364.189 42.0039Z" fill="black"/>
<path opacity="0.5" d="M372.406 48.3776C371.891 48.7085 371.306 48.9173 370.698 48.988C370.09 49.0588 369.473 48.9897 368.896 48.7859C368.318 48.5822 367.795 48.2493 367.365 47.8125C366.936 47.3757 366.612 46.8466 366.418 46.2656L364.191 47.9923C364.746 49.0965 365.597 50.0248 366.649 50.6734C367.701 51.3221 368.912 51.6656 370.148 51.6656C371.771 51.7094 373.349 51.1315 374.56 50.0503L372.406 48.3776Z" fill="black"/>
<path opacity="0.25" d="M376.427 43.7852H370.148V46.3638H373.736C373.662 46.7717 373.506 47.1603 373.277 47.5062C373.049 47.852 372.752 48.1478 372.406 48.3758L374.56 50.0492C375.217 49.4173 375.733 48.6546 376.075 47.8105C376.418 46.9663 376.579 46.0596 376.548 45.1492C376.548 44.6905 376.508 44.2358 376.427 43.7852Z" fill="black"/>
<rect x="1595" width="20" height="20" rx="10" fill="#A1A1AA"/>
<rect x="1516" y="184" width="20" height="20" rx="10" fill="#A1A1AA"/>
<path opacity="0.6" d="M1525.78 187.334H1523.56C1522.97 187.334 1522.4 187.568 1521.98 187.985C1521.57 188.402 1521.33 188.967 1521.33 189.556C1521.33 190.146 1521.57 190.711 1521.98 191.128C1522.4 191.545 1522.97 191.779 1523.56 191.779H1525.78V187.334Z" fill="black"/>
<path opacity="0.4" d="M1525.78 191.771H1523.56C1522.97 191.771 1522.4 192.006 1521.98 192.422C1521.57 192.839 1521.33 193.404 1521.33 193.993C1521.33 194.583 1521.57 195.148 1521.98 195.565C1522.4 195.981 1522.97 196.215 1523.56 196.215H1525.78V191.771Z" fill="black"/>
<path d="M1530.22 193.994C1530.22 194.583 1529.99 195.148 1529.57 195.565C1529.15 195.982 1528.59 196.216 1528 196.216C1527.41 196.216 1526.85 195.982 1526.43 195.565C1526.01 195.148 1525.78 194.583 1525.78 193.994C1525.78 193.404 1526.01 192.839 1526.43 192.422C1526.85 192.006 1527.41 191.771 1528 191.771C1528.59 191.771 1529.15 192.006 1529.57 192.422C1529.99 192.839 1530.22 193.404 1530.22 193.994Z" fill="black"/>
<path opacity="0.2" d="M1523.56 196.223H1525.78V198.445C1525.78 198.885 1525.65 199.314 1525.4 199.68C1525.16 200.045 1524.81 200.33 1524.41 200.498C1524 200.666 1523.55 200.71 1523.12 200.624C1522.69 200.538 1522.3 200.327 1521.98 200.016C1521.67 199.705 1521.46 199.309 1521.38 198.878C1521.29 198.447 1521.33 198.001 1521.5 197.595C1521.67 197.189 1521.96 196.842 1522.32 196.597C1522.69 196.353 1523.12 196.223 1523.56 196.223Z" fill="black"/>
<path opacity="0.8" d="M1525.78 187.334H1528C1528.59 187.334 1529.15 187.568 1529.57 187.985C1529.99 188.402 1530.22 188.967 1530.22 189.556C1530.22 190.146 1529.99 190.711 1529.57 191.128C1529.15 191.545 1528.59 191.779 1528 191.779H1525.78V187.334Z" fill="black"/>
<rect x="1607" y="203" width="20" height="20" rx="10" fill="#A1A1AA"/>
<path d="M1617 206.334C1613.32 206.334 1610.33 209.321 1610.33 213.001C1610.33 216.681 1613.32 219.667 1617 219.667C1620.68 219.667 1623.67 216.681 1623.67 213.001C1623.67 209.321 1620.68 206.334 1617 206.334ZM1620.09 210.867C1619.99 211.921 1619.56 214.481 1619.34 215.661C1619.25 216.161 1619.06 216.327 1618.89 216.347C1618.5 216.381 1618.21 216.094 1617.83 215.847C1617.25 215.461 1616.91 215.221 1616.35 214.847C1615.69 214.414 1616.11 214.174 1616.49 213.787C1616.59 213.687 1618.3 212.134 1618.33 211.994C1618.34 211.973 1618.34 211.951 1618.33 211.93C1618.33 211.909 1618.32 211.89 1618.3 211.874C1618.26 211.841 1618.21 211.854 1618.16 211.861C1618.1 211.874 1617.17 212.494 1615.35 213.721C1615.08 213.901 1614.84 213.994 1614.63 213.987C1614.39 213.981 1613.93 213.854 1613.59 213.741C1613.17 213.607 1612.85 213.534 1612.87 213.301C1612.89 213.181 1613.05 213.061 1613.37 212.934C1615.31 212.087 1616.61 211.527 1617.25 211.261C1619.11 210.487 1619.49 210.354 1619.74 210.354C1619.79 210.354 1619.92 210.367 1620 210.434C1620.07 210.487 1620.09 210.561 1620.09 210.614C1620.09 210.654 1620.1 210.774 1620.09 210.867Z" fill="black"/>
<g clip-path="url(#clip0_40004520_7412)">
<path d="M1611.32 5.79102C1610.94 5.79131 1610.58 5.91551 1610.29 6.14414C1609.99 6.37277 1609.78 6.6929 1609.69 7.05435H1607.75C1607.36 7.05427 1606.97 7.19559 1606.67 7.45316C1606.36 7.71073 1606.16 8.06786 1606.09 8.46102L1606.02 8.87701C1605.99 9.07377 1605.89 9.25256 1605.74 9.38142C1605.59 9.51028 1605.39 9.58079 1605.19 9.58035H1604.53C1604.43 9.21888 1604.22 8.8987 1603.93 8.67012C1603.63 8.44154 1603.27 8.31751 1602.89 8.31751C1602.52 8.31751 1602.16 8.44154 1601.86 8.67012C1601.57 8.8987 1601.36 9.21888 1601.26 9.58035H1600.32C1600.21 9.18336 1599.97 8.83739 1599.63 8.60729C1599.29 8.3772 1598.88 8.27877 1598.47 8.33045C1598.07 8.38214 1597.69 8.58039 1597.42 8.88805C1597.15 9.19571 1597 9.59166 1597 10.0017C1597 10.4117 1597.15 10.8077 1597.42 11.1153C1597.69 11.423 1598.07 11.6212 1598.47 11.6729C1598.88 11.7246 1599.29 11.6262 1599.63 11.3961C1599.97 11.166 1600.21 10.82 1600.32 10.423H1601.26C1601.36 10.7848 1601.57 11.1053 1601.86 11.3341C1602.16 11.563 1602.52 11.6871 1602.9 11.6871C1603.27 11.6871 1603.63 11.563 1603.93 11.3341C1604.22 11.1053 1604.43 10.7848 1604.53 10.423H1605.19C1605.39 10.4224 1605.59 10.4929 1605.74 10.6217C1605.89 10.7506 1605.99 10.9295 1606.02 11.1263L1606.09 11.5417C1606.16 11.935 1606.36 12.2922 1606.67 12.55C1606.97 12.8077 1607.36 12.9491 1607.75 12.949H1608C1608.1 13.3461 1608.35 13.6921 1608.69 13.9223C1609.03 14.1524 1609.44 14.2509 1609.84 14.1993C1610.25 14.1476 1610.63 13.9494 1610.9 13.6417C1611.17 13.334 1611.32 12.9381 1611.32 12.528C1611.32 12.118 1611.17 11.722 1610.9 11.4143C1610.63 11.1067 1610.25 10.9084 1609.84 10.8568C1609.44 10.8051 1609.03 10.9036 1608.69 11.1338C1608.35 11.3639 1608.1 11.71 1608 12.107H1607.75C1607.55 12.1074 1607.36 12.0368 1607.21 11.9078C1607.06 11.7788 1606.96 11.5999 1606.92 11.403L1606.86 10.9877C1606.79 10.6057 1606.6 10.2574 1606.31 10.0017C1606.6 9.74562 1606.79 9.39708 1606.85 9.01502L1606.92 8.60035C1606.96 8.40347 1607.06 8.22452 1607.21 8.09553C1607.36 7.96654 1607.55 7.89593 1607.75 7.89635H1609.68C1609.76 8.20148 1609.93 8.47842 1610.15 8.69572C1610.38 8.91301 1610.67 9.06195 1610.98 9.12561C1611.28 9.18927 1611.6 9.1651 1611.9 9.05584C1612.2 8.94659 1612.45 8.75663 1612.65 8.50754C1612.84 8.25846 1612.96 7.96023 1612.99 7.64675C1613.02 7.33327 1612.97 7.0171 1612.83 6.73416C1612.69 6.45121 1612.47 6.21284 1612.21 6.04612C1611.94 5.8794 1611.63 5.79102 1611.32 5.79102M1611.32 6.63302C1611.54 6.63302 1611.75 6.72173 1611.91 6.87963C1612.07 7.03754 1612.16 7.2517 1612.16 7.47502C1612.16 7.58564 1612.14 7.69521 1612.09 7.79744C1612.05 7.89967 1611.99 7.99257 1611.91 8.07083C1611.83 8.14909 1611.74 8.21117 1611.64 8.25353C1611.54 8.29588 1611.43 8.31768 1611.32 8.31768C1611.21 8.31768 1611.1 8.29588 1610.99 8.25353C1610.89 8.21117 1610.8 8.14909 1610.72 8.07083C1610.64 7.99257 1610.58 7.89967 1610.54 7.79744C1610.5 7.69521 1610.47 7.58564 1610.47 7.47502C1610.47 7.36439 1610.5 7.25484 1610.54 7.15264C1610.58 7.05044 1610.64 6.95759 1610.72 6.8794C1610.8 6.8012 1610.89 6.73919 1610.99 6.69692C1611.1 6.65464 1611.21 6.63293 1611.32 6.63302M1598.68 9.15968C1598.8 9.15959 1598.9 9.18131 1599.01 9.22358C1599.11 9.26586 1599.2 9.32787 1599.28 9.40606C1599.36 9.48426 1599.42 9.57711 1599.46 9.67931C1599.51 9.78151 1599.53 9.89105 1599.53 10.0017C1599.53 10.1123 1599.51 10.2219 1599.46 10.3241C1599.42 10.4263 1599.36 10.5191 1599.28 10.5973C1599.2 10.6755 1599.11 10.7375 1599.01 10.7798C1598.9 10.8221 1598.8 10.8438 1598.68 10.8437C1598.46 10.8437 1598.25 10.755 1598.09 10.5971C1597.93 10.4392 1597.84 10.225 1597.84 10.0017C1597.84 9.77837 1597.93 9.5642 1598.09 9.4063C1598.25 9.24839 1598.46 9.15968 1598.68 9.15968ZM1602.9 9.15968C1603.01 9.15968 1603.12 9.18146 1603.22 9.22378C1603.32 9.26609 1603.41 9.32811 1603.49 9.4063C1603.57 9.48448 1603.63 9.57731 1603.67 9.67946C1603.72 9.78162 1603.74 9.89111 1603.74 10.0017C1603.74 10.225 1603.65 10.4392 1603.49 10.5971C1603.33 10.755 1603.12 10.8437 1602.9 10.8437C1602.67 10.8435 1602.46 10.7547 1602.3 10.5968C1602.14 10.4389 1602.05 10.2249 1602.05 10.0017C1602.05 9.77837 1602.14 9.5642 1602.3 9.4063C1602.46 9.24839 1602.67 9.15968 1602.9 9.15968M1609.63 11.6863C1609.86 11.6863 1610.07 11.7751 1610.23 11.933C1610.39 12.0909 1610.48 12.305 1610.48 12.5283C1610.48 12.7517 1610.39 12.9658 1610.23 13.1237C1610.07 13.2816 1609.86 13.3703 1609.63 13.3703C1609.52 13.3704 1609.41 13.3487 1609.31 13.3064C1609.21 13.2642 1609.12 13.2022 1609.04 13.124C1608.96 13.0458 1608.9 12.9529 1608.85 12.8507C1608.81 12.7485 1608.79 12.639 1608.79 12.5283C1608.79 12.4177 1608.81 12.3082 1608.85 12.2059C1608.9 12.1037 1608.96 12.0108 1609.04 11.9325C1609.12 11.8543 1609.21 11.7922 1609.31 11.7498C1609.41 11.7075 1609.52 11.6857 1609.63 11.6857" fill="black"/>
</g>
<defs>
<linearGradient id="paint0_linear_40004520_7412" x1="-4.02317e-05" y1="140.704" x2="1904" y2="140.704" gradientUnits="userSpaceOnUse">
<stop stop-color="white" stop-opacity="0"/>
<stop offset="0.161011" stop-color="white"/>
<stop offset="0.792591" stop-color="white"/>
<stop offset="0.981314" stop-color="white" stop-opacity="0"/>
</linearGradient>
<linearGradient id="paint1_linear_40004520_7412" x1="0" y1="158.958" x2="1905" y2="158.958" gradientUnits="userSpaceOnUse">
<stop stop-color="white" stop-opacity="0"/>
<stop offset="0.161011" stop-color="white"/>
<stop offset="0.792591" stop-color="white"/>
<stop offset="0.981314" stop-color="white" stop-opacity="0"/>
</linearGradient>
<linearGradient id="paint2_linear_40004520_7412" x1="0.5" y1="53.0645" x2="1905" y2="53.0645" gradientUnits="userSpaceOnUse">
<stop stop-color="white" stop-opacity="0"/>
<stop offset="0.161011" stop-color="white"/>
<stop offset="0.792591" stop-color="white"/>
<stop offset="0.991101" stop-color="white" stop-opacity="0"/>
</linearGradient>
<clipPath id="clip0_40004520_7412">
<rect width="16" height="16" fill="white" transform="translate(1597 2)"/>
</clipPath>
</defs>
</svg>
